<svg id="Layer_1" data-name="Layer 1" xmlns="http://www.w3.org/2000/svg" xmlns:xlink="http://www.w3.org/1999/xlink" viewBox="0 0 552.58 463.94"><defs><style>.cls-1,.cls-2{fill:#cfcfcf;}.cls-1{opacity:0.25;}.cls-1,.cls-2,.cls-33,.cls-40,.cls-51,.cls-64{isolation:isolate;}.cls-2,.cls-63,.cls-64{opacity:0.3;}.cls-3{fill:#2d2d2d;}.cls-4{fill:#595959;}.cls-5{fill:#3e2f18;}.cls-6{fill:#ffac80;}.cls-7{fill:#00c6fb;}.cls-8{fill:url(#linear-gradient);}.cls-9{fill:#f39d73;}.cls-10{fill:#dcdbf3;}.cls-11{fill:#1e035b;}.cls-12{fill:url(#linear-gradient-2);}.cls-13{fill:url(#linear-gradient-3);}.cls-14{fill:url(#linear-gradient-4);}.cls-15{fill:url(#linear-gradient-5);}.cls-16{fill:url(#linear-gradient-6);}.cls-17{fill:url(#linear-gradient-7);}.cls-18{opacity:0.4;}.cls-19{fill:#cee7f0;}.cls-20{fill:url(#linear-gradient-8);}.cls-21{fill:url(#linear-gradient-9);}.cls-22{fill:#b9b9b9;}.cls-23{fill:#f1f1f1;}.cls-24,.cls-40{fill:#fff;}.cls-25{fill:#f8e8ff;}.cls-26{fill:url(#linear-gradient-10);}.cls-27{fill:url(#linear-gradient-11);}.cls-28{fill:#9797f2;}.cls-29{fill:#b1a9f9;}.cls-30{fill:#f2e9ff;}.cls-31,.cls-36{fill:none;}.cls-32{fill:#724724;}.cls-33{fill:#331c0b;opacity:0.5;}.cls-34{fill:#bd906c;}.cls-35{fill:url(#linear-gradient-12);}.cls-36{stroke:#fff;stroke-miterlimit:10;stroke-width:0.23px;}.cls-37{fill:#c0ccf3;}.cls-38{fill:#aab9e1;}.cls-39{fill:#725dff;}.cls-40{opacity:0.53;}.cls-41{fill:#1bc7ef;}.cls-42{fill:#0cc6f2;}.cls-43{fill:#16c6ef;}.cls-44{fill:#0bcffc;}.cls-45{fill:#12cdf9;}.cls-46{fill:#1cc3ea;}.cls-47{fill:#17bee5;}.cls-48{fill:#bf0a3a;}.cls-49{fill:#89806e;}.cls-50,.cls-51{opacity:0.6;}.cls-51,.cls-52{fill:#a7d8d9;}.cls-53{fill:#4b53b2;}.cls-54{fill:#343e84;}.cls-55{fill:#ed9596;}.cls-56{fill:#9a9a9a;}.cls-57{fill:#f5c54e;}.cls-58{fill:#282928;}.cls-59{fill:#371c11;}.cls-60{fill:#fdd6b6;}.cls-61{fill:#f8ce71;}.cls-62{fill:url(#linear-gradient-13);}.cls-64{fill:#00caf9;}.cls-65{fill:#212121;}</style><linearGradient id="linear-gradient" x1="-322.82" y1="555.47" x2="-378.74" y2="589.9" gradientTransform="matrix(1, 0, 0, -1, 0, 466)" gradientUnits="userSpaceOnUse"><stop offset="0" stop-color="#fff"/><stop offset="1" stop-color="#f2e3ff"/></linearGradient><linearGradient id="linear-gradient-2" x1="-457.31" y1="500.74" x2="-509.06" y2="516.28" gradientTransform="matrix(1, 0, 0, -1, 0, 466)" gradientUnits="userSpaceOnUse"><stop offset="0" stop-color="#ffb19a"/><stop offset="1" stop-color="#ff805c"/></linearGradient><linearGradient id="linear-gradient-3" x1="-206" y1="762.99" x2="-241.77" y2="794.17" xlink:href="#linear-gradient-2"/><linearGradient id="linear-gradient-4" x1="-280.66" y1="720.88" x2="-321.04" y2="749.86" xlink:href="#linear-gradient-2"/><linearGradient id="linear-gradient-5" x1="43.83" y1="703.53" x2="51.3" y2="690.61" gradientTransform="matrix(1, 0, 0, -1, 0, 466)" gradientUnits="userSpaceOnUse"><stop offset="0" stop-color="#6060a2"/><stop offset="1" stop-color="#200455"/></linearGradient><linearGradient id="linear-gradient-6" x1="-624.71" y1="291.77" x2="-595.63" y2="291.77" gradientTransform="matrix(1, 0, 0, -1, 0, 466)" gradientUnits="userSpaceOnUse"><stop offset="0.33" stop-color="#f3e7b6"/><stop offset="1" stop-color="#a290ff"/></linearGradient><linearGradient id="linear-gradient-7" x1="-550.04" y1="362.65" x2="-569.11" y2="364.6" xlink:href="#linear-gradient-5"/><linearGradient id="linear-gradient-8" x1="-623.3" y1="296.19" x2="-610.4" y2="296.19" gradientTransform="matrix(1, 0, 0, -1, 0, 466)" gradientUnits="userSpaceOnUse"><stop offset="0.15" stop-color="#f3e7b6"/><stop offset="1" stop-color="#a290ff"/></linearGradient><linearGradient id="linear-gradient-9" x1="270.19" y1="194.36" x2="294.26" y2="194.36" xlink:href="#linear-gradient-2"/><linearGradient id="linear-gradient-10" x1="364.53" y1="21.04" x2="363.39" y2="80.13" xlink:href="#linear-gradient-5"/><linearGradient id="linear-gradient-11" x1="1547.61" y1="-1937.69" x2="1542.82" y2="-1929.81" gradientTransform="matrix(1, 0, 0, -1, 0, 466)" gradientUnits="userSpaceOnUse"><stop offset="0" stop-color="#f3e7ff"/><stop offset="1" stop-color="#afadff"/></linearGradient><linearGradient id="linear-gradient-12" x1="247.51" y1="148.19" x2="247.52" y2="130.5" gradientTransform="matrix(1, 0, 0, -1, 0, 466)" gradientUnits="userSpaceOnUse"><stop offset="0" stop-color="#fff"/><stop offset="1" stop-color="#724724"/></linearGradient><linearGradient id="linear-gradient-13" x1="305.68" y1="109.86" x2="333.49" y2="109.86" gradientTransform="matrix(1, 0, 0, -1, 0, 466)" gradientUnits="userSpaceOnUse"><stop offset="0" stop-color="#e30077"/><stop offset="0.23" stop-color="#e70066"/><stop offset="0.66" stop-color="#f4003c"/><stop offset="1" stop-color="#ff0018"/></linearGradient></defs><path class="cls-1" d="M526,255.47c-.34,56.14-50.57,108.87-113.17,118.81-27.65,4.39-55.78,1.22-83.92-1l-5.05-.38c-4.76-.34-9.53-.64-14.28-.86a259,259,0,0,0-31.89.28c-27.68,2.15-54.29,10.31-81.6,14.88s-57,5.22-81.34-6.68a72.43,72.43,0,0,1-19.58-14c-23-16.35-45.94-33.15-64-53.8C11.79,290.5-1.71,263,.18,235c2-29.34,20.49-56.12,43.61-77.29,19.7-18,42.8-32.82,65.24-48.24q2.77-1.89,5.52-3.81c2-1.41,4-2.82,6-4.25C132.35,93,143.8,84.21,155.3,75.45q3.63-2.76,7.27-5.51c12.54-9.47,25.22-18.76,38.53-27.24l.31-.2q2.58-1.65,5.2-3.25a284,284,0,0,1,26-14.21c1.24-.59,2.49-1.16,3.74-1.72q4.44-2,9-3.86l.09,0h0a239.5,239.5,0,0,1,23.45-8.09c1.82-.53,3.66-1.05,5.51-1.52q7-1.86,14.05-3.3a266.75,266.75,0,0,1,35.38-4.84Q332.89,1,342,1h3.32a277.34,277.34,0,0,1,31.16,2c34,4.11,66.93,14.56,95.63,31.19,18.86,10.94,36.44,24.93,45.27,43.26,16,33.18,0,71,.62,107C518.37,208.29,526.15,231.67,526,255.47Z" transform="translate(0 -1)"/><path class="cls-2" d="M323.86,1.67V372.94c-4.76-.34-9.53-.64-14.29-.85a256.91,256.91,0,0,0-31.88.27c-27.69,2.15-54.29,10.31-81.6,14.88s-57,5.22-81.34-6.68a72.13,72.13,0,0,1-19.58-14c-23-16.35-45.94-33.15-64-53.8C11.79,290.5-1.71,263,.18,235c2-29.34,20.49-56.12,43.6-77.28,19.7-18.05,42.8-32.83,65.25-48.24q2.76-1.91,5.51-3.82c2-1.4,4-2.82,6-4.24,11.77-8.39,23.21-17.2,34.71-25.95q3.63-2.77,7.27-5.52c12.54-9.47,25.23-18.75,38.53-27.24l.31-.19c1.72-1.1,3.46-2.19,5.2-3.25a282.87,282.87,0,0,1,26.05-14.21c1.24-.59,2.48-1.17,3.73-1.73q4.45-2,9-3.85l.08,0h0a239.31,239.31,0,0,1,23.44-8.09c1.82-.53,3.66-1.05,5.51-1.52q7-1.86,14.05-3.3a268.36,268.36,0,0,1,35.39-4.85Z" transform="translate(0 -1)"/><path class="cls-3" d="M201.42,227.79l66-6.4a10.92,10.92,0,0,1,12,11.2l-3.11,101.09-63.42,13.6L190.27,243.07a12.66,12.66,0,0,1,2.15-10.14,12.6,12.6,0,0,1,9-5.14Z" transform="translate(0 -1)"/><path class="cls-4" d="M205.78,227.05l66-6.4a10.88,10.88,0,0,1,8.51,2.9,10.58,10.58,0,0,1,2.62,3.78,10.94,10.94,0,0,1,.84,4.52l-3.11,101.09-63.43,13.6L194.63,242.32a12.65,12.65,0,0,1,11.15-15.27Z" transform="translate(0 -1)"/><path class="cls-5" d="M293.76,220.12s12.11-22.3,2.92-47.14-29.56-16.59-37.83-8.75c-10.06,9.54,4.66,31.42-15.86,45.26-13.72,9.25-19.68,33.2,8.61,33.69S292.3,223.27,293.76,220.12Z" transform="translate(0 -1)"/><path class="cls-6" d="M343.64,267.2s22.53-15.8,30.75-23.68c0,0,7.68-2,9.08,1.12,0,0-19.92,30.81-35.73,41.89C347.74,286.53,338.52,273.69,343.64,267.2Z" transform="translate(0 -1)"/><path class="cls-7" d="M300.24,219.75s8.52,6.5,20.2,22.64,23.2,24.81,23.2,24.81a68.07,68.07,0,0,0,4.1,19.33s-22.59-11.86-39.91-30.65C307.82,255.88,298.23,228.34,300.24,219.75Z" transform="translate(0 -1)"/><path class="cls-8" d="M291.1,326.58s-13.38,18.69-31.56,10.28l1.33-122.81,25.28,3.7s13.44,13.54,16.63,42.3C304.75,277.86,291.74,305.69,291.1,326.58Z" transform="translate(0 -1)"/><path class="cls-6" d="M260.87,214.05s5-4.17,5.78-7.59.93-12.24.93-12.24,5.6-8.68,17.61,11.48c0,0-3.78,5.6-3.12,8.45s4.08,3.61,4.08,3.61S280.89,241.2,260.87,214.05Z" transform="translate(0 -1)"/><path class="cls-9" d="M267.52,196.41s5.23,10.9,15.45,13.35c1.73-3.28,2.22-4.06,2.22-4.06l-17.61-11.48Z" transform="translate(0 -1)"/><path class="cls-10" d="M294.59,275.14h.05a41.75,41.75,0,0,0,7.8-1.77.58.58,0,0,0,.35-.77.59.59,0,0,0-.31-.33.57.57,0,0,0-.46,0,42.83,42.83,0,0,1-7.56,1.71.6.6,0,0,0-.39.22.63.63,0,0,0-.12.44.61.61,0,0,0,.21.39.6.6,0,0,0,.42.14Z" transform="translate(0 -1)"/><path class="cls-10" d="M273.45,278.76a40.7,40.7,0,0,0,8.41-1.39.56.56,0,0,0,.35-.29.55.55,0,0,0,.05-.45.56.56,0,0,0-.29-.36.55.55,0,0,0-.45,0c-.1,0-9.17,2.68-17.47.63a.6.6,0,0,0-.23,0,.72.72,0,0,0-.22.08.69.69,0,0,0-.18.16.81.81,0,0,0-.1.21.65.65,0,0,0,0,.24.58.58,0,0,0,.08.22.65.65,0,0,0,.16.17.51.51,0,0,0,.21.1,32.55,32.55,0,0,0,9.69.74Z" transform="translate(0 -1)"/><path class="cls-6" d="M268.85,194.3s-6.4-.47-7.83-6.57,3.91-3,5.19-4.21,9.34-20.62,22.06-17.22a7.34,7.34,0,0,1,3.31,2,7.2,7.2,0,0,1,1.86,3.38c2.05,8.38,6.25,29.67-2.91,33.89C281,209.94,268.85,194.3,268.85,194.3Z" transform="translate(0 -1)"/><path class="cls-7" d="M286.15,217.75s11.52-.73,14.09,2c0,0,3,24.86,7.58,36.13s-4.37,14.73-4.93,21-7.38,19.8-5.95,32.08c1.07,9.25,2.11,19.71-5.84,17.6-7.26-1.92,4-35.69,5.85-44.49S304.94,256.06,286.15,217.75Z" transform="translate(0 -1)"/><path class="cls-7" d="M260.87,214.05s20.3,41.2,13.29,65.63c-5,17.26-4.66,59.31-19.62,58.81-24.5-.82-20-26-16.4-30.56s11.14-25.72,7.2-42.33c0,0,.3-41,2.43-45.43C247.77,220.17,256.2,216.27,260.87,214.05Z" transform="translate(0 -1)"/><path class="cls-7" d="M247.77,220.17s-8.87,4.42-15.1,20.22-14.79,40-18.76,47.4c0,0,10.48,4.66,14.14,9.24,0,0,16.93-29.48,24-39.56C252.05,257.47,266.91,233.41,247.77,220.17Z" transform="translate(0 -1)"/><path class="cls-11" d="M268.66,183.79c1.89-.11,3.36-1.53,5.29-8.57,2.27-8.3,12.89-9.87,13-9.88a.6.6,0,0,0,.4-.24.57.57,0,0,0,.11-.44.59.59,0,0,0-.23-.4.61.61,0,0,0-.44-.11c-.47.06-11.51,1.68-14,10.75-2.18,8-3.47,7.84-5.26,7.64a7.69,7.69,0,0,0-1.73,0,.61.61,0,0,0-.4.23.57.57,0,0,0-.12.44.44.44,0,0,0,.07.22.43.43,0,0,0,.15.18.53.53,0,0,0,.21.11.58.58,0,0,0,.23,0,5.94,5.94,0,0,1,1.46.05,7.59,7.59,0,0,0,1.26,0Z" transform="translate(0 -1)"/><path class="cls-12" d="M385.47,216.71s5.26-2.69,7-3.44,6.34-1.83,6.68-1.27-.25,1.91-2.55,2.58c-5.19,1.5-1.15.33-8.06,4.29l-6.55,9-1.69-3.53Z" transform="translate(0 -1)"/><path class="cls-13" d="M386.7,220.13a77.78,77.78,0,0,1,9-1.4s5.23.94,5.44,1.12c0,0,.4.81-1.33,1.31a11,11,0,0,1-4.67.19,49.53,49.53,0,0,1-5.37,1.2l-6.58,6.06-2-4Z" transform="translate(0 -1)"/><path class="cls-14" d="M387.48,223.78l7.17-.21,4.89,1.81s0,1.48-1.88,1.4a9.15,9.15,0,0,1-3.26-.73s-1.85.34-2.76.41a27.44,27.44,0,0,1-2.72,2.22s-.89,1.52-1.87,3.6l-3.47-3,1-3.61Z" transform="translate(0 -1)"/><path class="cls-6" d="M374.39,243.52s.58-.17,1.38-6c.28-2,1.37-12.07,1.34-14.79,0,0,5.51-7.93,6.66-9.29s10.28-7,10.49-6.86a2.4,2.4,0,0,1,.62,1.61,2.3,2.3,0,0,1-.67,1.59,7.9,7.9,0,0,1-3.29,2.45,43.37,43.37,0,0,1-3.61,3.69s-3.09,7.72-5,9.7c0,0,4.34,5.54,4.72,6.68,0,0-1.16,5.69-1.6,8.5a5.64,5.64,0,0,1-2,3.86Z" transform="translate(0 -1)"/><path class="cls-6" d="M378.08,229.34a34,34,0,0,0,5.23-4.66c3.53-3.64,7.22-9.58,8.29-8.31,1.45,1.73-.21,5-3,9.28s-3.18,6.2-3.45,10.55Z" transform="translate(0 -1)"/><path class="cls-15" d="M268.3,185.68c1.66,3.69,5.64,4,8.07,3.76s8.73-1.87,9.41-2.36,1.67-2.11,3.89-2.88a6.46,6.46,0,0,1,.86-.24,3.68,3.68,0,0,1,.58-.08c2.33-.09,2.92,2.54,2.92,3.08s2.24,1.15,2.24,1.15c1.16-.39.67-2.43.67-2.43l9.53-3.82-1.9-1.06-24.5-13.74,0,0c-.5.3-6.58,4-10.11,6.47l0,0-.31.23,0,0-.05,0a12,12,0,0,0-2,1.64C266.42,177,266.63,182,268.3,185.68Z" transform="translate(0 -1)"/><path class="cls-7" d="M270.72,183.64c1.56,2.42,2.82,2.51,5.54,2.8s8.64-1.2,10-1.4c.93-.13,2.26-.54,3.41-.84a12.34,12.34,0,0,1,1.44-.31c1.27-.18,3.88-.72,4.37.25a4.37,4.37,0,0,0,1.47,1.55l9.52-3.82v-.7l-1.9-.37-14.74-2.86L280,167.08c-.5.3-6.58,4-10.11,6.47l0,0-.32.23,0,0-.05,0C268.12,174.91,269.17,181.24,270.72,183.64Z" transform="translate(0 -1)"/><path class="cls-11" d="M285.45,183.05l19.6-.86a3.84,3.84,0,0,0,2.79-1.28,4,4,0,0,0,.79-1.36,3.74,3.74,0,0,0,.18-1.56c-.32-2.05-2.2-8-2.2-8-.66-2.65-2.24-4-4.4-3.86l-20.5.45a3.24,3.24,0,0,0-2.53,1.3,3.17,3.17,0,0,0-.59,1.34,3.14,3.14,0,0,0,.05,1.46,66.61,66.61,0,0,0,2.7,8.5C282.35,181.73,283.28,183.14,285.45,183.05Z" transform="translate(0 -1)"/><path class="cls-16" d="M279.28,170.51a34.3,34.3,0,0,0,1,3.6c.55,1.68,1.18,3.42,1.62,4.51,1,2.43,1.9,3.78,4,3.69l9.91-.43,9.27-.4a4.11,4.11,0,0,0,2.82-1.33,3.16,3.16,0,0,0,.75-1.24,3.24,3.24,0,0,0,.12-1.45c-.28-1.34-.62-2.67-1-4-.55-1.88-1.12-3.63-1.12-3.63-.63-2.53-2.18-3.77-4.3-3.69l-8,.18-12.09.28-.27,0a3.09,3.09,0,0,0-1.28.4,3.28,3.28,0,0,0-1,.9,3.12,3.12,0,0,0-.47,2.58Z" transform="translate(0 -1)"/><path class="cls-17" d="M269.91,184.34s-2.1-4.3-1.57-7.14c-3,1.77-11.57,6.16-14.31,11.22l-1.34,7.3a62.2,62.2,0,0,1,17.22-11.38Z" transform="translate(0 -1)"/><g class="cls-18"><path class="cls-19" d="M282,166.62c5.78,2.27,19,7.82,25.9,13.53a3.2,3.2,0,0,0,.87-2.69c-.32-2-2.15-7.63-2.15-7.63-.64-2.53-2.19-3.77-4.3-3.68l-20,.45Z" transform="translate(0 -1)"/></g><path class="cls-20" d="M294.38,166.33a102.77,102.77,0,0,1,13.38,7.14c-.55-1.89-1.12-3.64-1.12-3.64-.63-2.53-2.18-3.77-4.3-3.68Z" transform="translate(0 -1)"/><g class="cls-18"><path class="cls-19" d="M280.29,174.11c.55,1.68,1.18,3.41,1.62,4.51,1,2.43,1.9,3.78,4,3.69l9.91-.44C291.59,179.68,285.23,176.43,280.29,174.11Z" transform="translate(0 -1)"/></g><path class="cls-6" d="M215.24,284.67s18.22-4.46,52.54-5.74c0,0,4.27,6,3.18,10,0,0-26.89,12-39.5,14C231.47,303,210.54,294.11,215.24,284.67Z" transform="translate(0 -1)"/><path class="cls-6" d="M212.71,292.37a35.56,35.56,0,0,0,.17,5.16c1.75,1.13,7.36,9.09,18.59,5.42-5.54-4.6-16.23-18.28-16.23-18.28S212.87,290.35,212.71,292.37Z" transform="translate(0 -1)"/><path class="cls-6" d="M280.11,282.07s-6.18,6.19-12.57,8.41c-6.93,1.57-3-9.85-3-9.85l3.34-3.65h2.64Z" transform="translate(0 -1)"/><path class="cls-21" d="M275.51,262.92l3.86-3.61h4.89l3.66,1s1,.69-1.19,2c-.84.2-5.29.2-5.29.2l-.73,1.54s-2.4,5.75,1.14,6.77a7,7,0,0,0,6.31-1.24c2.08-1.83,4.26-2.18,4.85-1.93s2.82,2-.64,4.63a11.55,11.55,0,0,0-3,1.78,33.48,33.48,0,0,1-5.25,5.26c-2.42,1.83-6.46,4.45-8,4.6a4.36,4.36,0,0,1-3.16-.85,4.31,4.31,0,0,1-1.68-2.81c-.5-3.12-2.58-8.16.85-12S275.51,262.92,275.51,262.92Z" transform="translate(0 -1)"/><path class="cls-6" d="M264.39,282.81l.54-6.77s.55-1.29,1.24-1.3a65,65,0,0,1,8.45,1.13c.62.16,2.88,1.39.25,2.53-2,.87-6.28-.2-6.28-.2S269,283.46,264.39,282.81Z" transform="translate(0 -1)"/><path class="cls-6" d="M266.56,272.14a16.48,16.48,0,0,1,3.69-3.28c.7-.41,1.85-.65,5.11.79,3.32,1.23,6.7,2.82,6.7,2.82s.67,1.95-1.7,2-6.67-2-6.67-2a4.49,4.49,0,0,0-2.7,2.6l0,.76-4.88-.28S266,272.87,266.56,272.14Z" transform="translate(0 -1)"/><path class="cls-6" d="M268.21,268c1.11-1.59,6.16-4.7,6.16-4.7l6.35.8a31.62,31.62,0,0,0,3.4,1.55,1.85,1.85,0,0,1,.13.73,1.79,1.79,0,0,1-.19.72,1.7,1.7,0,0,1-.46.57,1.75,1.75,0,0,1-.67.33c-1.43,0-6.48-1-6.48-1l-2.34,1.17-.41,1.09-5.49,2.4S267.08,269.58,268.21,268Z" transform="translate(0 -1)"/><path class="cls-22" d="M336,434.79l-166.9-62.57-1.58-26,168.81,35.5Z" transform="translate(0 -1)"/><path class="cls-23" d="M336.32,381.69l-.33,53.1,216.59-90.62V324.81Z" transform="translate(0 -1)"/><path class="cls-24" d="M45.14,377.72l155.57,87.22L552.58,324.81,398.47,286.87Z" transform="translate(0 -1)"/><path class="cls-7" d="M336.73,330.33l98.32-24.61L390.76,296,287.87,320.28Z" transform="translate(0 -1)"/><path class="cls-25" d="M336.73,336.41l98.32-25.2v-5.49L336.73,330Z" transform="translate(0 -1)"/><path class="cls-26" d="M390,299.17l28.4,5.52-81.64,20.12-31.16-5.13Z" transform="translate(0 -1)"/><path class="cls-7" d="M287.87,320.28v5.06l48.86,11.08V330Z" transform="translate(0 -1)"/><path class="cls-7" d="M312.3,340c0,5.35-7.14,5.1-17.33,5.1-5.1,0-20.39-1.27-20.39-6.63a5.45,5.45,0,0,1,.19-1.45c1.28-4.83,8.69-9.25,18.67-9.25,10.3,0,17.86,6.05,18.77,11.21a5.86,5.86,0,0,1,.09,1Z" transform="translate(0 -1)"/><path class="cls-27" d="M312.3,340c0,5.35-7.14,5.1-17.33,5.1-5.1,0-20.39-1.27-20.39-6.63a5.45,5.45,0,0,1,.19-1.45c1.87.66,17.29,5.79,37.44,2a5.86,5.86,0,0,1,.09,1Z" transform="translate(0 -1)"/><path class="cls-25" d="M440.58,393.5v-7.56l69.82-18.85v6.3Z" transform="translate(0 -1)"/><path class="cls-28" d="M402.15,380l38.43,6v7.56L402.15,386Z" transform="translate(0 -1)"/><path class="cls-29" d="M402.15,380l66.77-18.15L510.4,367l-69.82,18.93Z" transform="translate(0 -1)"/><path class="cls-7" d="M374.28,348.21V234.79l110.19-16.2.21,103.11Z" transform="translate(0 -1)"/><path class="cls-30" d="M367.15,234.14l7.13.65V348.21h-7.13Z" transform="translate(0 -1)"/><path class="cls-30" d="M367.15,234.14l113.43-16.2,3.89.65-110.19,16.2Z" transform="translate(0 -1)"/><path class="cls-25" d="M439.75,293.12l35.64,81.67L456,380l-22.68-85.55Z" transform="translate(0 -1)"/><path class="cls-28" d="M439.1,378,456,380l-22.68-85.55v5.18Z" transform="translate(0 -1)"/><rect class="cls-31" x="226.5" y="335.16" width="41.29" height="14.91"/><path class="cls-32" d="M247.25,349.83c10.87,0,19.68-3,19.68-6.78s-8.81-6.78-19.68-6.78-19.69,3-19.69,6.78S236.38,349.83,247.25,349.83Z" transform="translate(0 -1)"/><path class="cls-33" d="M247.71,348.91c6.3,0,11.41-1.76,11.41-3.93s-5.11-3.93-11.41-3.93-11.4,1.75-11.4,3.93S241.41,348.91,247.71,348.91Z" transform="translate(0 -1)"/><path class="cls-34" d="M235.76,329.58c0-2.25,5.26-4.08,11.76-4.08s11.76,1.83,11.76,4.08c0,.08,0,.16,0,.24-.17,1.78-1.43,13-7.39,18-5.4,1.38-8.86.3-10.33-.7C238.38,343,235.07,333.75,235.76,329.58Z" transform="translate(0 -1)"/><path class="cls-35" d="M247.52,333.67c6.49,0,11.75-1.83,11.75-4.09s-5.26-4.08-11.75-4.08-11.76,1.83-11.76,4.08S241,333.67,247.52,333.67Z" transform="translate(0 -1)"/><path class="cls-36" d="M242.55,315.52a3.61,3.61,0,0,0-1.71,1.52,3.68,3.68,0,0,0-.47,2.25,6.61,6.61,0,0,0,1.89,3.32,9.46,9.46,0,0,1,2.18,3.17,2.83,2.83,0,0,1-1.1,3.39" transform="translate(0 -1)"/><path class="cls-36" d="M248.75,315.52A3.68,3.68,0,0,0,247,317a3.76,3.76,0,0,0-.47,2.25,6.69,6.69,0,0,0,1.89,3.32,9.46,9.46,0,0,1,2.18,3.17,2.79,2.79,0,0,1,.05,1.89,2.82,2.82,0,0,1-1.15,1.5" transform="translate(0 -1)"/><path class="cls-37" d="M168.84,364.29l7,12.13,8.09.74,6-1.82.37-.76,5-10.15-6.23-37.05-1.89-1.77-6.27-.75-5.48,1.66-.4.12Z" transform="translate(0 -1)"/><path class="cls-38" d="M168.84,364.29,175,326.64l.4-.12,1.44,1.51-4.41,39,3.43,9.36Z" transform="translate(0 -1)"/><path class="cls-38" d="M195.29,364.43l-5,10.15-.37.46,3.13-10.11-4-37.55Z" transform="translate(0 -1)"/><path class="cls-39" d="M203.4,289.68c.74.94.22,2.25-.2,3.21a16.45,16.45,0,0,1-4.16,5.32c-.86.79-1.75,1.53-2.63,2.29s-2,1.77-2.94,2.68a72.36,72.36,0,0,1-6,5.18,30.82,30.82,0,0,0-2.8,2.3,8.08,8.08,0,0,0-1.15,1.33c-.31.46-.63,1-1.22,1.07h-.16l-.21.94a31.48,31.48,0,0,0,.16,13.25.34.34,0,0,1,0,.24.3.3,0,0,1-.19.14.29.29,0,0,1-.24,0,.28.28,0,0,1-.14-.18,27.12,27.12,0,0,1-.91-7.61,32.07,32.07,0,0,1,.89-7,1.21,1.21,0,0,1-.38-.54,2.75,2.75,0,0,1-.08-1.45c.22-1.45.46-2.89.69-4.33a.39.39,0,0,1,.17-.26A20,20,0,0,1,187.11,295a20.85,20.85,0,0,1,5.54-4.2,17.47,17.47,0,0,1,7-2.1,7.74,7.74,0,0,1,2,.15,2.74,2.74,0,0,1,1.66.8Zm-.76,1.57c.1-.42.09-.88-.35-1.09a4.78,4.78,0,0,0-1.75-.34,11.14,11.14,0,0,0-3.58.49,19.49,19.49,0,0,0-10.31,7,20.1,20.1,0,0,0-3.1,6.08,23.68,23.68,0,0,0-1,5.74q.48-1.32,1.08-2.58a30.8,30.8,0,0,1,3.54-5.81,25.12,25.12,0,0,1,4.77-4.89c.31-.23.69.28.41.53-.94.85-1.9,1.67-2.76,2.6a27.88,27.88,0,0,0-2.36,2.85,31.66,31.66,0,0,0-4.75,9.75,1.88,1.88,0,0,1,.16-.23,9.09,9.09,0,0,1,1.06-1.25,18,18,0,0,1,2.64-2.05,28.19,28.19,0,0,0,2.83-2.16c1.86-1.62,3.53-3.44,5.3-5.15,1.58-1.53,3.3-2.9,4.85-4.45a11,11,0,0,0,3.27-5.07Z" transform="translate(0 -1)"/><path class="cls-7" d="M202.29,290.16c.44.2.45.67.35,1.09a11.09,11.09,0,0,1-3.27,5.07c-1.55,1.55-3.27,2.92-4.85,4.45-1.77,1.71-3.44,3.53-5.3,5.15a28.19,28.19,0,0,1-2.83,2.16,17.36,17.36,0,0,0-2.63,2.05,8.51,8.51,0,0,0-1.07,1.25c-.06.07-.1.15-.16.23a31.66,31.66,0,0,1,4.75-9.75,29.25,29.25,0,0,1,2.36-2.85c.87-.93,1.82-1.75,2.77-2.6.27-.25-.1-.76-.41-.53a24.83,24.83,0,0,0-4.77,4.89,30.85,30.85,0,0,0-3.55,5.81q-.6,1.26-1.08,2.58a23.68,23.68,0,0,1,1-5.74,20.1,20.1,0,0,1,3.1-6.08,19.53,19.53,0,0,1,10.31-7,11.14,11.14,0,0,1,3.58-.49,4.78,4.78,0,0,1,1.75.34Z" transform="translate(0 -1)"/><path class="cls-39" d="M163.32,310.54c-.24.64.27,1.27.66,1.72a9.46,9.46,0,0,0,3.17,2.2c.6.29,1.21.54,1.82.81s1.38.63,2.06,1a39.23,39.23,0,0,0,4.15,1.82,19.79,19.79,0,0,1,1.92.78,4.7,4.7,0,0,1,.85.54,1.21,1.21,0,0,0,.39.28,1.4,1.4,0,0,0,.46.1l.09,0,.27.47a18,18,0,0,1,2.15,7.27.19.19,0,0,0,0,.07.1.1,0,0,0,0,0,.09.09,0,0,0,.06,0h.13s0,0,.06-.05a.1.1,0,0,0,0-.05s0,0,0-.07a15.77,15.77,0,0,0-.79-4.31,18.06,18.06,0,0,0-1.67-3.66.69.69,0,0,0,.13-.36,1.59,1.59,0,0,0-.21-.8c-.36-.76-.73-1.5-1.1-2.25a.24.24,0,0,0-.14-.12,11.44,11.44,0,0,0-4.76-5.25,11.83,11.83,0,0,0-3.74-1.36,9.91,9.91,0,0,0-4.2,0,4.67,4.67,0,0,0-1.09.43,1.56,1.56,0,0,0-.78.72Zm.68.73c-.12-.22-.2-.47,0-.65a2.73,2.73,0,0,1,.9-.49,6.45,6.45,0,0,1,2-.33,11.11,11.11,0,0,1,6.82,2.1,11.31,11.31,0,0,1,2.72,2.8,13.12,13.12,0,0,1,1.49,3c-.33-.42-.67-.83-1-1.22a17.08,17.08,0,0,0-2.92-2.58A14.46,14.46,0,0,0,170.6,312c-.21-.07-.33.27-.13.36.66.31,1.31.6,1.95,1a16.82,16.82,0,0,1,1.77,1.16,18.05,18.05,0,0,1,4.24,4.52l-.13-.1a5.85,5.85,0,0,0-.79-.5,10.43,10.43,0,0,0-1.79-.67,16.16,16.16,0,0,1-1.91-.7c-1.29-.57-2.51-1.29-3.76-1.92s-2.3-1-3.4-1.61a6.38,6.38,0,0,1-2.65-2.23Z" transform="translate(0 -1)"/><path class="cls-7" d="M164,310.62a.5.5,0,0,0,0,.65,6.29,6.29,0,0,0,2.65,2.22c1.11.59,2.28,1.05,3.39,1.61,1.26.64,2.48,1.35,3.77,1.92a14.56,14.56,0,0,0,1.91.7,10.46,10.46,0,0,1,1.79.68,5,5,0,0,1,.79.5l.13.1a18.12,18.12,0,0,0-4.25-4.53,16.34,16.34,0,0,0-1.77-1.16c-.63-.36-1.29-.65-1.94-.95-.2-.09-.08-.43.13-.36a14.42,14.42,0,0,1,3.43,1.86,17.93,17.93,0,0,1,2.92,2.58c.36.39.7.8,1,1.23a13.84,13.84,0,0,0-1.49-3,11.48,11.48,0,0,0-2.72-2.8,11.18,11.18,0,0,0-6.82-2.1,6.76,6.76,0,0,0-2,.34,2.64,2.64,0,0,0-.9.49Z" transform="translate(0 -1)"/><path class="cls-39" d="M182,327.35c0,.53-.81.53-.83,0a60.43,60.43,0,0,0-1-8.59,63.08,63.08,0,0,0-4.73-14.68,2.53,2.53,0,0,1-.14-.29l-.35-.47a22.33,22.33,0,0,0-6.84-6.21c-2.92-1.78-6-3.31-9-4.93-1.39-.75-2.82-1.46-4.16-2.3a9.36,9.36,0,0,1-2.85-2.5,4.44,4.44,0,0,1-.74-1.76,4.56,4.56,0,0,1,0-1.91,4.63,4.63,0,0,1,2.27-3,11.48,11.48,0,0,1,4-1.15,17.42,17.42,0,0,1,3.82-.09,18.75,18.75,0,0,1,7.29,2.23,17.47,17.47,0,0,1,5.66,4.95,23.78,23.78,0,0,1,3.55,8.2c.79,3.11,1.27,6.3,1.84,9.46.22,1.24.69,3-.67,3.81a1.23,1.23,0,0,1-.49.16,1.26,1.26,0,0,1-.51,0A61.94,61.94,0,0,1,182,327.35ZM179.19,307a4.13,4.13,0,0,0-.09-2.26c-.14-.8-.29-1.61-.43-2.41-.25-1.42-.5-2.83-.77-4.24a34.81,34.81,0,0,0-2.4-8,17.25,17.25,0,0,0-17.56-9.74c-2.41.29-5.54,1.1-5.83,4-.25,2.56,2.13,4.18,4.09,5.27,2.72,1.52,5.5,2.93,8.24,4.42a42.13,42.13,0,0,1,7.32,4.61,20.31,20.31,0,0,1,1.78,1.69q-.81-1.49-1.71-2.94c-.68-1.11-1.4-2.18-2.14-3.25s-1.54-2.07-2.23-3.17c-.11-.17.13-.33.27-.21a24.52,24.52,0,0,1,2.84,3.43q1.29,1.79,2.44,3.64a59.86,59.86,0,0,1,4.41,8.67c.27-.21.74.14.57.53s.27.6.54.57a1,1,0,0,0,.4-.22.84.84,0,0,0,.26-.38Z" transform="translate(0 -1)"/><path class="cls-7" d="M179.1,304.72a4,4,0,0,1,.09,2.26.9.9,0,0,1-.25.38,1,1,0,0,1-.4.22c-.27,0-.7-.25-.55-.56s-.29-.74-.56-.54a59.92,59.92,0,0,0-4.42-8.67c-.77-1.24-1.58-2.46-2.43-3.64a23.91,23.91,0,0,0-2.85-3.43c-.13-.12-.37,0-.27.21.69,1.1,1.5,2.11,2.23,3.17s1.47,2.14,2.15,3.25,1.16,1.95,1.71,2.94a20.31,20.31,0,0,0-1.78-1.69,42.51,42.51,0,0,0-7.32-4.61c-2.74-1.49-5.53-2.9-8.25-4.42-2-1.09-4.34-2.71-4.08-5.27.29-2.88,3.41-3.7,5.83-4a17.23,17.23,0,0,1,17.55,9.74,34.32,34.32,0,0,1,2.4,8c.28,1.41.52,2.82.78,4.24Z" transform="translate(0 -1)"/><path class="cls-40" d="M274.14,17.81a274.91,274.91,0,0,0-28.68,1.62h0l-.08,0-9,3.85h66.73v57.9H206.6v-42l-5.2,3.25-.31.2V86.76H308.62V17.81Z" transform="translate(0 -1)"/><path class="cls-40" d="M162.56,69.94l-7.47,5.52h18.75v53.77h-59.3V105.39L109,109.47v25.27h70.32V69.94Z" transform="translate(0 -1)"/><path class="cls-41" d="M486.88,124.54s0,0,0,0l-10.33-24,0,0a.64.64,0,0,0-.13-.19h0a.64.64,0,0,0-.3-.19l-8.52-2.34a.64.64,0,0,0-.43,0h-.06l-23.17,10s0,0,0,0a.68.68,0,0,0-.23.14.91.91,0,0,0-.15.23.75.75,0,0,0-.05.26.66.66,0,0,0,.06.27v0l9.83,24,.29.13h0l8.27,3a.84.84,0,0,0,.27,0,.9.9,0,0,0,.27-.07h0l24-10.34h0a.7.7,0,0,0,.24-.17.68.68,0,0,0,.15-.26A.64.64,0,0,0,486.88,124.54ZM467,99.29l1.64,3.8-16.87,7.25-5.75-2Zm1.56.14,5.24,1.44-3.9,1.67Zm.62,4.93,7.45,17.32-16.47,7.08-7.46-17.32Zm-17.9,7.27,7.61,17.68-4.64,2-8.91-21.77Zm8.15,19,1.47,3.41-5.15-1.83Zm3.09,3.68L460.71,130l16.87-7.26,6.69,2.13Zm15.53-12.79-7.6-17.66,5.07-2.18L485,123.69Z" transform="translate(0 -1)"/><path class="cls-42" d="M404,95.86a.56.56,0,0,0-.11-.2.49.49,0,0,0-.18-.14h0l-18.61-8.7a.65.65,0,0,0-.21-.06.76.76,0,0,0-.21,0l-6.56,2.13h0l-.23.1-8.31,18.64v0a.54.54,0,0,0-.05.21.76.76,0,0,0,0,.21.94.94,0,0,0,.12.18.52.52,0,0,0,.17.12h0l18,8.39h.05a.53.53,0,0,0,.33,0l6.75-1.64a.49.49,0,0,0,.24-.14h0a.58.58,0,0,0,.11-.15l0,0L404,96.27v0a.47.47,0,0,0,0-.37ZM371.47,108l4.57-1.46,13.07,6.1-1.37,3Zm18.63,5.1,3,1.41-4.15,1Zm-13.3-7.4,6.27-13.43,12.77,6-6.27,13.42ZM371,107l7.52-16.88,3.6,1.68-6.4,13.7Zm8.72-17.52,4.09-1.31-1.23,2.64Zm22.23,6.39-5.31,1.51-13.08-6.11L385.06,88Zm.55,1-8,17.1-3.93-1.83,6.4-13.7Z" transform="translate(0 -1)"/><path class="cls-7" d="M429.94,201.3l-29.42-12.65a.94.94,0,0,1-.48-.5.87.87,0,0,1,0-.69L412.71,158a.9.9,0,0,1,1.19-.47L442.79,170a.91.91,0,0,1,.48,1.18l-12.27,30-.36.16a1,1,0,0,1-.35.07.85.85,0,0,1-.35-.08Zm-28-13.91,27.91,12,11.51-28.14L414,159.47Z" transform="translate(0 -1)"/><path class="cls-43" d="M419.62,205,389.67,192.1a1,1,0,0,1-.29-.2,1,1,0,0,1-.19-.3.84.84,0,0,1-.07-.35.81.81,0,0,1,.08-.34L402.08,161a1,1,0,0,1,.2-.29,1,1,0,0,1,.3-.19.83.83,0,0,1,.34-.07.85.85,0,0,1,.35.08l30,12.88a.91.91,0,0,1,.48.5.87.87,0,0,1,0,.69l-12.88,29.95a.94.94,0,0,1-.5.48A.87.87,0,0,1,419.62,205ZM391.1,190.84l28.45,12.24,12.24-28.45-28.45-12.24Z" transform="translate(0 -1)"/><path class="cls-44" d="M402.55,162.05a.86.86,0,0,1-.39-.34.85.85,0,0,1-.13-.51.88.88,0,0,1,.19-.49,1,1,0,0,1,.44-.28l10.63-2.92a.87.87,0,0,1,.65.08.84.84,0,0,1,.4.52.87.87,0,0,1-.08.65.89.89,0,0,1-.52.41l-10.62,2.92a.86.86,0,0,1-.57,0Z" transform="translate(0 -1)"/><path class="cls-45" d="M432.58,175a.81.81,0,0,1-.38-.33.86.86,0,0,1-.13-.49.83.83,0,0,1,.57-.78L442.2,170a1.27,1.27,0,0,1,.34-.05,1.32,1.32,0,0,1,.33.08.9.9,0,0,1,.27.21.92.92,0,0,1,.17.29.91.91,0,0,1,.05.33,1,1,0,0,1-.09.33.84.84,0,0,1-.49.44L433.21,175a.91.91,0,0,1-.63,0Z" transform="translate(0 -1)"/><path class="cls-46" d="M430.6,201.32,420.29,205a.84.84,0,0,1-.66,0,.87.87,0,0,1-.41-1.15.88.88,0,0,1,.49-.44h0L430,199.75a.86.86,0,0,1,.32-.05.89.89,0,0,1,.32.08.73.73,0,0,1,.26.2.88.88,0,0,1,.17.28.85.85,0,0,1,0,.32.88.88,0,0,1-.07.32,1.21,1.21,0,0,1-.2.26.78.78,0,0,1-.28.16Z" transform="translate(0 -1)"/><path class="cls-47" d="M389.63,192.08a.86.86,0,0,1-.39-.34.87.87,0,0,1-.13-.5.85.85,0,0,1,.6-.77L400.56,187a.84.84,0,0,1,1.08.56.85.85,0,0,1-.56,1.08l-10.85,3.45A.89.89,0,0,1,389.63,192.08Z" transform="translate(0 -1)"/><path class="cls-48" d="M333.49,338.9c0,.82-5.91,8-13.59,8s-14.22-7.17-14.22-8,6.54-1.13,14.22-1.13S333.49,338.09,333.49,338.9Z" transform="translate(0 -1)"/><path class="cls-49" d="M318.78,364.64s0,6.28,1.62,6.11c1.23-.13,2.05-5.93,2.05-5.93Z" transform="translate(0 -1)"/><g class="cls-50"><g class="cls-50"><path class="cls-51" d="M320.81,322.5l-.26,5.42-1.77,36.72,3.67.17,1.76-36.71.26-5.43Z" transform="translate(0 -1)"/></g></g><path class="cls-52" d="M322.09,328.3l-1.75,36.41.55,0,1.75-36.42Z" transform="translate(0 -1)"/><path class="cls-53" d="M323.53,338.18c1.47.38,2-10.06,2-10.06s.17-15.61-1.49-16.44-3.2,4.64-4.11,16.9l4.05.19Z" transform="translate(0 -1)"/><path class="cls-54" d="M319.36,326.94l0,.55,6.41.31,0-.56Z" transform="translate(0 -1)"/><path class="cls-55" d="M313.77,369.26c1-.14,1.85-.13,1.69-1.28l-.27-2-3.81.53.27,2c.16,1.15,1,.92,2,.77Z" transform="translate(0 -1)"/><path class="cls-56" d="M315,364.81l-3.81.53.16,1.14,3.81-.52Z" transform="translate(0 -1)"/><path class="cls-57" d="M306.6,323.24l-1.14.16,5.76,41.94,1.14-.16Z" transform="translate(0 -1)"/><path class="cls-57" d="M309.27,322.88l-1.53.21,5.76,42,1.53-.21Z" transform="translate(0 -1)"/><path class="cls-58" d="M307.75,323.09l-1.15.15,5.76,41.94,1.14-.16Z" transform="translate(0 -1)"/><path class="cls-59" d="M306.6,314.76l-.37,2.71,1.22-.17Z" transform="translate(0 -1)"/><path class="cls-60" d="M309.27,322.88l-1.82-5.58-1.22.17-.77,5.93Z" transform="translate(0 -1)"/><path class="cls-55" d="M334.47,319.31c-1-.23-1.78-.54-2,.58l-.48,2,3.75.89.47-2c.27-1.13-.57-1.2-1.57-1.44Z" transform="translate(0 -1)"/><path class="cls-56" d="M332,321.88l-.26,1.12,3.74.89.27-1.12Z" transform="translate(0 -1)"/><path class="cls-57" d="M334.31,323.62l-9.77,41.19,1.12.27,9.77-41.19Z" transform="translate(0 -1)"/><path class="cls-57" d="M331.69,323l-9.77,41.19,1.49.35,9.77-41.18Z" transform="translate(0 -1)"/><path class="cls-61" d="M333.2,323.36l-9.8,41.18,1.13.27,9.79-41.18Z" transform="translate(0 -1)"/><path class="cls-59" d="M321.47,372.72l1.33-2.39-1.2-.28Z" transform="translate(0 -1)"/><path class="cls-60" d="M321.92,364.19l-.32,5.86,1.2.28,2.86-5.25Z" transform="translate(0 -1)"/><path class="cls-58" d="M318.6,369l-.07-1.15-2.66-42.25-1.54.1-1.15.08-1.15.07,2.66,42.24.07,1.15.13,2.05c.08,1.15.9,1,1.93.91h.12c1-.06,1.87,0,1.79-1.15Z" transform="translate(0 -1)"/><path class="cls-59" d="M313.8,317.32l-.57,2.66,1.23-.07Z" transform="translate(0 -1)"/><path class="cls-60" d="M315.87,325.6l-1.41-5.69-1.23.07-1.2,5.86Z" transform="translate(0 -1)"/><path class="cls-62" d="M333.49,339c-.35,4.4-1.44,30.61-4.59,34.35l-5-.38c-4.76-.34-9.52-.64-14.28-.86C307,365.7,306,343,305.68,339c0,0,0,0,0,.08h0a3.89,3.89,0,0,0,2,.81l1.19.24,1.19.18,1.59.19,1.26.12c1.22.1,2.52.18,3.88.23,1,0,2.05.06,3.09.06H322l1.57-.05h.25c1.28-.07,2.52-.17,3.68-.3.57-.07,1.11-.14,1.63-.23s.85-.15,1.25-.24.87-.2,1.26-.32a8.35,8.35,0,0,0,1.8-.75h0Z" transform="translate(0 -1)"/><g class="cls-63"><g class="cls-63"><path class="cls-64" d="M308,340.88a1.62,1.62,0,0,1-.29.87,1.59,1.59,0,0,1-.72.56,1.61,1.61,0,0,1-.92.07,1.55,1.55,0,0,1-.79-.46,1.53,1.53,0,0,1-.41-.82,1.57,1.57,0,0,1,.11-.91,1.61,1.61,0,0,1,2.09-.8,1.64,1.64,0,0,1,.5.36,1.44,1.44,0,0,1,.33.52,1.57,1.57,0,0,1,.1.61Z" transform="translate(0 -1)"/></g><g class="cls-63"><path class="cls-64" d="M307.76,349.13a1.6,1.6,0,0,1-.28.9,1.56,1.56,0,0,1-.73.59,1.6,1.6,0,0,1-.94.08,1.53,1.53,0,0,1-.83-.46,1.57,1.57,0,0,1-.42-.83,1.59,1.59,0,0,1,.11-.94,1.64,1.64,0,0,1,.62-.71,1.62,1.62,0,0,1,.91-.25,1.6,1.6,0,0,1,1.12.49,1.77,1.77,0,0,1,.33.52,1.57,1.57,0,0,1,.11.61Z" transform="translate(0 -1)"/></g><g class="cls-63"><path class="cls-64" d="M310.43,346.64a1.61,1.61,0,0,1-.86-.29,1.57,1.57,0,0,1-.61-1.63,1.61,1.61,0,0,1,.45-.79,1.53,1.53,0,0,1,.82-.41,1.63,1.63,0,0,1,.9.11,1.6,1.6,0,0,1,.69.6,1.66,1.66,0,0,1,.25.87,1.7,1.7,0,0,1-.14.6,1.68,1.68,0,0,1-.36.51,1.77,1.77,0,0,1-.52.33,1.65,1.65,0,0,1-.62.1Z" transform="translate(0 -1)"/></g><g class="cls-63"><path class="cls-64" d="M302,346.37a1.63,1.63,0,0,1-.85-.31,1.58,1.58,0,0,1-.58-1.65,1.58,1.58,0,0,1,2.19-1,1.58,1.58,0,0,1,.68.6,1.61,1.61,0,0,1,.23.88,1.52,1.52,0,0,1-.15.6,1.67,1.67,0,0,1-.37.5,1.6,1.6,0,0,1-.53.32,1.64,1.64,0,0,1-.62.09Z" transform="translate(0 -1)"/></g><g class="cls-63"><path class="cls-64" d="M307.53,357.38a1.68,1.68,0,0,1-.27.93,1.65,1.65,0,0,1-.74.62,1.69,1.69,0,0,1-1,.1,1.77,1.77,0,0,1-.85-.46,1.65,1.65,0,0,1-.44-.86,1.59,1.59,0,0,1,.11-1A1.69,1.69,0,0,1,305,356a1.65,1.65,0,0,1,.94-.26,1.59,1.59,0,0,1,.61.13,1.45,1.45,0,0,1,.52.35,1.62,1.62,0,0,1,.47,1.14Z" transform="translate(0 -1)"/></g><g class="cls-63"><path class="cls-64" d="M310.26,354.9a1.6,1.6,0,0,1-.85-.31,1.56,1.56,0,0,1-.54-.73,1.66,1.66,0,0,1-.05-.91,1.52,1.52,0,0,1,.46-.78,1.67,1.67,0,0,1,.82-.4,1.6,1.6,0,0,1,.89.12,1.65,1.65,0,0,1,.69.59,1.6,1.6,0,0,1,.24.88,1.39,1.39,0,0,1-.14.6,1.46,1.46,0,0,1-.37.51,1.53,1.53,0,0,1-.53.33,1.65,1.65,0,0,1-.62.1Z" transform="translate(0 -1)"/></g><g class="cls-63"><path class="cls-64" d="M301.67,354.62a1.57,1.57,0,0,1-.85-.33,1.62,1.62,0,0,1-.52-.74,1.65,1.65,0,0,1,0-.91,1.57,1.57,0,0,1,.48-.77,1.64,1.64,0,0,1,.82-.38,1.59,1.59,0,0,1,1.79,1.63,1.56,1.56,0,0,1-.54,1.1,1.55,1.55,0,0,1-1.16.4Z" transform="translate(0 -1)"/></g><g class="cls-63"><path class="cls-64" d="M307.3,365.64a1.72,1.72,0,0,1-.26,1,1.69,1.69,0,0,1-.75.65,1.77,1.77,0,0,1-1,.11A1.66,1.66,0,0,1,304,366a1.69,1.69,0,0,1,.75-1.74,1.69,1.69,0,0,1,1-.26,1.65,1.65,0,0,1,1.15.47,1.71,1.71,0,0,1,.48,1.15Z" transform="translate(0 -1)"/></g><g class="cls-63"><path class="cls-64" d="M310.08,363.15a1.5,1.5,0,0,1-.84-.32,1.61,1.61,0,0,1-.56-1.64,1.54,1.54,0,0,1,.47-.77A1.5,1.5,0,0,1,310,360a1.54,1.54,0,0,1,.9.12,1.56,1.56,0,0,1,.68.59,1.59,1.59,0,0,1,.24.87,1.61,1.61,0,0,1-.15.62,1.7,1.7,0,0,1-.38.51,1.64,1.64,0,0,1-.54.32A1.66,1.66,0,0,1,310.08,363.15Z" transform="translate(0 -1)"/></g><g class="cls-63"><path class="cls-64" d="M301.31,362.87a1.56,1.56,0,0,1-1.34-1.09,1.62,1.62,0,0,1,0-.9,1.58,1.58,0,0,1,2.2-1,1.65,1.65,0,0,1,.67.61,1.52,1.52,0,0,1,.22.88,1.62,1.62,0,0,1-.16.61,1.73,1.73,0,0,1-.39.5,1.65,1.65,0,0,1-1.18.39Z" transform="translate(0 -1)"/></g><g class="cls-63"><path class="cls-64" d="M307.06,373.89a1.7,1.7,0,0,1-.24,1,1.72,1.72,0,0,1-.76.68,1.76,1.76,0,0,1-1,.13,1.72,1.72,0,0,1-.91-.46,1.78,1.78,0,0,1-.49-.9,1.75,1.75,0,0,1,.11-1,1.67,1.67,0,0,1,.66-.78,1.77,1.77,0,0,1,1-.27,1.67,1.67,0,0,1,1.17.47,1.61,1.61,0,0,1,.49,1.15Z" transform="translate(0 -1)"/></g><g class="cls-63"><path class="cls-64" d="M309.9,371.41a1.6,1.6,0,0,1-.83-.34,1.59,1.59,0,0,1-.06-2.41,1.64,1.64,0,0,1,.82-.38,1.57,1.57,0,0,1,1.56.72,1.57,1.57,0,0,1,.25.87,1.69,1.69,0,0,1-.17.62,1.58,1.58,0,0,1-.38.51,1.69,1.69,0,0,1-.55.32,1.74,1.74,0,0,1-.64.09Z" transform="translate(0 -1)"/></g><g class="cls-63"><path class="cls-64" d="M301,371.12a1.59,1.59,0,0,1-.83-.36,1.64,1.64,0,0,1-.49-.75,1.62,1.62,0,0,1,0-.9,1.56,1.56,0,0,1,.5-.76,1.57,1.57,0,0,1,1.71-.21,1.58,1.58,0,0,1,.88,1.48,1.85,1.85,0,0,1-.17.61,1.5,1.5,0,0,1-.4.5,1.64,1.64,0,0,1-.56.32,1.68,1.68,0,0,1-.63.07Z" transform="translate(0 -1)"/></g><g class="cls-63"><path class="cls-64" d="M316.28,341a1.52,1.52,0,0,1-.27.88,1.55,1.55,0,0,1-.71.58,1.5,1.5,0,0,1-.91.08,1.56,1.56,0,0,1-.81-.43,1.63,1.63,0,0,1-.43-.82,1.67,1.67,0,0,1,.1-.91,1.55,1.55,0,0,1,.59-.7,1.47,1.47,0,0,1,.88-.26,1.53,1.53,0,0,1,.6.12,1.5,1.5,0,0,1,.51.35,1.47,1.47,0,0,1,.34.51,1.39,1.39,0,0,1,.11.6Z" transform="translate(0 -1)"/></g><g class="cls-63"><path class="cls-64" d="M316.23,349.29a1.68,1.68,0,0,1-.26.9,1.64,1.64,0,0,1-.72.61,1.62,1.62,0,0,1-2.22-1.17,1.59,1.59,0,0,1,.1-.94,1.56,1.56,0,0,1,.6-.72,1.63,1.63,0,0,1,1.51-.15,1.61,1.61,0,0,1,.52.34,1.7,1.7,0,0,1,.35.52,1.58,1.58,0,0,1,.12.61Z" transform="translate(0 -1)"/></g><g class="cls-63"><path class="cls-64" d="M318.85,346.73a1.47,1.47,0,0,1-.86-.28,1.57,1.57,0,0,1-.65-1.61,1.59,1.59,0,0,1,.44-.8,1.56,1.56,0,0,1,.8-.42,1.56,1.56,0,0,1,1.87,1.54,1.58,1.58,0,0,1-.47,1.12,1.8,1.8,0,0,1-.52.34A1.57,1.57,0,0,1,318.85,346.73Z" transform="translate(0 -1)"/></g><g class="cls-63"><path class="cls-64" d="M316.17,357.54a1.6,1.6,0,0,1-.24.93,1.74,1.74,0,0,1-.73.64,1.66,1.66,0,0,1-1,.11,1.55,1.55,0,0,1-.86-.44,1.63,1.63,0,0,1-.47-.85,1.75,1.75,0,0,1,.09-1,1.65,1.65,0,0,1,.62-.74,1.66,1.66,0,0,1,1.54-.16,1.42,1.42,0,0,1,.53.34,1.6,1.6,0,0,1,.48,1.13Z" transform="translate(0 -1)"/></g><g class="cls-63"><path class="cls-64" d="M318.85,355a1.55,1.55,0,0,1-1.41-1,1.63,1.63,0,0,1-.07-.9,1.54,1.54,0,0,1,.45-.79,1.55,1.55,0,0,1,1.7-.32,1.53,1.53,0,0,1,.7.58,1.55,1.55,0,0,1,.26.86,1.59,1.59,0,0,1-.13.61,1.43,1.43,0,0,1-.36.52,1.61,1.61,0,0,1-.52.34A1.88,1.88,0,0,1,318.85,355Z" transform="translate(0 -1)"/></g><g class="cls-63"><path class="cls-64" d="M316.12,365.79a1.72,1.72,0,0,1-.23,1,1.69,1.69,0,0,1-.74.66,1.66,1.66,0,0,1-1,.13,1.57,1.57,0,0,1-.89-.44,1.62,1.62,0,0,1-.49-.86,1.68,1.68,0,0,1,.09-1,1.75,1.75,0,0,1,.63-.77,1.66,1.66,0,0,1,2.61,1.3Z" transform="translate(0 -1)"/></g><g class="cls-63"><path class="cls-64" d="M318.85,363.25a1.66,1.66,0,0,1-.85-.31,1.62,1.62,0,0,1-.54-.72,1.66,1.66,0,0,1,0-.91,1.58,1.58,0,0,1,1.26-1.19,1.6,1.6,0,0,1,.89.11,1.57,1.57,0,0,1,1,1.44,1.92,1.92,0,0,1-.14.62,1.55,1.55,0,0,1-.37.51,1.42,1.42,0,0,1-.53.34,1.67,1.67,0,0,1-.63.11Z" transform="translate(0 -1)"/></g><g class="cls-63"><path class="cls-64" d="M318.85,371.5a1.56,1.56,0,0,1-.84-.32,1.59,1.59,0,0,1-.52-.73,1.53,1.53,0,0,1,0-.9,1.58,1.58,0,0,1,.45-.78,1.66,1.66,0,0,1,.81-.39,1.54,1.54,0,0,1,.9.11,1.56,1.56,0,0,1,.69.58,1.6,1.6,0,0,1,.25.86,1.48,1.48,0,0,1-.14.62,1.62,1.62,0,0,1-.38.52,1.51,1.51,0,0,1-.54.33,1.56,1.56,0,0,1-.64.1Z" transform="translate(0 -1)"/></g><g class="cls-63"><path class="cls-64" d="M324.58,341a1.53,1.53,0,0,1-.25.88,1.55,1.55,0,0,1-.7.59,1.58,1.58,0,0,1-.91.11,1.62,1.62,0,0,1-.82-.42,1.59,1.59,0,0,1-.44-.8,1.52,1.52,0,0,1,.08-.92,1.55,1.55,0,0,1,.57-.72,1.57,1.57,0,0,1,.87-.27,1.43,1.43,0,0,1,.61.11,1.32,1.32,0,0,1,.51.33,1.5,1.5,0,0,1,.35.51,1.38,1.38,0,0,1,.13.6Z" transform="translate(0 -1)"/></g><g class="cls-63"><path class="cls-64" d="M324.7,349.24a1.65,1.65,0,0,1-.24.92,1.59,1.59,0,0,1-.71.62,1.61,1.61,0,0,1-1.77-.3,1.61,1.61,0,0,1-.47-.83,1.64,1.64,0,0,1,.66-1.67,1.72,1.72,0,0,1,.9-.29,1.57,1.57,0,0,1,.61.11,1.53,1.53,0,0,1,.53.33,1.68,1.68,0,0,1,.36.51,1.58,1.58,0,0,1,.13.6Z" transform="translate(0 -1)"/></g><g class="cls-63"><path class="cls-64" d="M327.27,346.64a1.54,1.54,0,0,1-1.46-.95,1.58,1.58,0,0,1-.1-.91,1.62,1.62,0,0,1,.42-.81,1.59,1.59,0,0,1,.79-.44,1.66,1.66,0,0,1,.91.07,1.61,1.61,0,0,1,.72.57,1.63,1.63,0,0,1,.28.86,1.57,1.57,0,0,1-.11.61,1.61,1.61,0,0,1-.34.52,1.5,1.5,0,0,1-.51.35,1.38,1.38,0,0,1-.6.13Z" transform="translate(0 -1)"/></g><g class="cls-63"><path class="cls-64" d="M324.82,357.5a1.7,1.7,0,0,1-.22.94,1.62,1.62,0,0,1-.72.65,1.67,1.67,0,0,1-1,.14,1.73,1.73,0,0,1-.87-.42,1.66,1.66,0,0,1-.48-.84,1.69,1.69,0,0,1,.07-1,1.72,1.72,0,0,1,.6-.76,1.67,1.67,0,0,1,.92-.29,1.62,1.62,0,0,1,1.15.43,1.57,1.57,0,0,1,.51,1.12Z" transform="translate(0 -1)"/></g><g class="cls-63"><path class="cls-64" d="M327.45,354.9a1.6,1.6,0,0,1-.87-.28,1.54,1.54,0,0,1-.56-.7,1.56,1.56,0,0,1,.34-1.71,1.7,1.7,0,0,1,.79-.43,1.66,1.66,0,0,1,.91.08,1.59,1.59,0,0,1,1,1.43,1.58,1.58,0,0,1-.12.61,1.63,1.63,0,0,1-.87.87,1.42,1.42,0,0,1-.61.13Z" transform="translate(0 -1)"/></g><g class="cls-63"><path class="cls-64" d="M325,365.76a1.73,1.73,0,0,1-.22,1,1.71,1.71,0,0,1-1.7.83,1.79,1.79,0,0,1-.9-.42,1.71,1.71,0,0,1-.5-.86,1.68,1.68,0,0,1,.06-1,1.74,1.74,0,0,1,.61-.78,1.7,1.7,0,0,1,.95-.3,1.64,1.64,0,0,1,.62.09,1.79,1.79,0,0,1,.55.33,1.55,1.55,0,0,1,.37.51,1.67,1.67,0,0,1,.16.62Z" transform="translate(0 -1)"/></g><g class="cls-63"><path class="cls-64" d="M327.62,363.15a1.55,1.55,0,0,1-.85-.29,1.51,1.51,0,0,1-.56-.71,1.53,1.53,0,0,1-.07-.9,1.5,1.5,0,0,1,.43-.79,1.56,1.56,0,0,1,.8-.42,1.47,1.47,0,0,1,.9.08,1.54,1.54,0,0,1,.7.56,1.57,1.57,0,0,1,.28.86,1.59,1.59,0,0,1-.12.62,1.77,1.77,0,0,1-.36.53,1.55,1.55,0,0,1-.53.34,1.59,1.59,0,0,1-.62.12Z" transform="translate(0 -1)"/></g><g class="cls-63"><path class="cls-64" d="M327.8,371.41a1.55,1.55,0,0,1-.85-.31,1.65,1.65,0,0,1-.54-.71,1.54,1.54,0,0,1-.06-.9,1.64,1.64,0,0,1,.44-.79,1.59,1.59,0,0,1,1.7-.32,1.59,1.59,0,0,1,.7.56,1.54,1.54,0,0,1,.27.86,1.47,1.47,0,0,1-.13.62,1.77,1.77,0,0,1-.36.53,1.73,1.73,0,0,1-.54.35,1.9,1.9,0,0,1-.63.11Z" transform="translate(0 -1)"/></g><g class="cls-63"><path class="cls-64" d="M332.87,340.78a1.59,1.59,0,0,1-.23.88,1.62,1.62,0,0,1-.69.61,1.51,1.51,0,0,1-.91.12,1.54,1.54,0,0,1-.83-.4,1.71,1.71,0,0,1-.46-.79,1.6,1.6,0,0,1,.06-.92,1.57,1.57,0,0,1,1.43-1,1.43,1.43,0,0,1,.61.1,1.56,1.56,0,0,1,.52.32,1.64,1.64,0,0,1,.36.5,1.75,1.75,0,0,1,.14.6Z" transform="translate(0 -1)"/></g><g class="cls-63"><path class="cls-64" d="M333.17,349a1.61,1.61,0,0,1-.92,1.55,1.57,1.57,0,0,1-.93.14,1.72,1.72,0,0,1-.85-.4,1.64,1.64,0,0,1-.48-.81,1.65,1.65,0,0,1,.62-1.69,1.65,1.65,0,0,1,.9-.31,1.43,1.43,0,0,1,.61.1,1.51,1.51,0,0,1,.53.32,1.59,1.59,0,0,1,.37.49,1.61,1.61,0,0,1,.15.61Z" transform="translate(0 -1)"/></g><g class="cls-63"><path class="cls-64" d="M335.68,346.37a1.54,1.54,0,0,1-.88-.24,1.58,1.58,0,0,1-.6-.68,1.73,1.73,0,0,1-.12-.9,1.67,1.67,0,0,1,.4-.82,1.59,1.59,0,0,1,.79-.46,1.66,1.66,0,0,1,.91.05,1.61,1.61,0,0,1,1,1.41,1.86,1.86,0,0,1-.1.61,1.71,1.71,0,0,1-.32.53,1.82,1.82,0,0,1-.51.36,1.55,1.55,0,0,1-.6.14Z" transform="translate(0 -1)"/></g><g class="cls-63"><path class="cls-64" d="M333.47,357.28a1.66,1.66,0,0,1-.21,1,1.54,1.54,0,0,1-.7.66,1.57,1.57,0,0,1-.95.16,1.63,1.63,0,0,1-1.38-1.23,1.65,1.65,0,0,1,0-1,1.75,1.75,0,0,1,.59-.78,1.7,1.7,0,0,1,1.53-.22,1.39,1.39,0,0,1,.54.31,1.66,1.66,0,0,1,.54,1.11Z" transform="translate(0 -1)"/></g><g class="cls-63"><path class="cls-64" d="M336,354.62a1.56,1.56,0,0,1-.87-.26,1.47,1.47,0,0,1-.59-.69,1.53,1.53,0,0,1-.1-.9,1.59,1.59,0,0,1,.4-.81,1.65,1.65,0,0,1,.79-.45,1.62,1.62,0,0,1,.9.06,1.57,1.57,0,0,1,1,1.41,1.57,1.57,0,0,1-.11.61,1.53,1.53,0,0,1-.33.53,1.62,1.62,0,0,1-1.12.5Z" transform="translate(0 -1)"/></g><g class="cls-63"><path class="cls-64" d="M333.77,365.53a1.75,1.75,0,0,1-.19,1,1.69,1.69,0,0,1-.71.69,1.66,1.66,0,0,1-1,.18A1.8,1.8,0,0,1,331,367a1.76,1.76,0,0,1-.52-.84,1.72,1.72,0,0,1,.64-1.79A1.69,1.69,0,0,1,332,364a1.61,1.61,0,0,1,1.18.4,1.63,1.63,0,0,1,.55,1.11Z" transform="translate(0 -1)"/></g><g class="cls-63"><path class="cls-64" d="M336.39,362.87a1.54,1.54,0,0,1-.86-.27,1.56,1.56,0,0,1-.57-.7,1.57,1.57,0,0,1,1.11-2.14,1.54,1.54,0,0,1,.9.06,1.57,1.57,0,0,1,.72.55,1.65,1.65,0,0,1,.3.85,1.68,1.68,0,0,1-.12.63,1.42,1.42,0,0,1-.34.53,1.86,1.86,0,0,1-.52.36,1.68,1.68,0,0,1-.62.13Z" transform="translate(0 -1)"/></g><g class="cls-63"><path class="cls-64" d="M334.07,373.79a1.74,1.74,0,0,1-.18,1,1.67,1.67,0,0,1-.72.72,1.71,1.71,0,0,1-1,.2,1.74,1.74,0,0,1-.94-.41,1.72,1.72,0,0,1-.5-1.88,1.67,1.67,0,0,1,.6-.81,1.7,1.7,0,0,1,1-.34,1.64,1.64,0,0,1,1.76,1.52Z" transform="translate(0 -1)"/></g><g class="cls-63"><path class="cls-64" d="M336.75,371.12a1.56,1.56,0,0,1-.86-.29,1.61,1.61,0,0,1-.56-.7,1.63,1.63,0,0,1-.08-.9,1.57,1.57,0,0,1,.43-.8,1.66,1.66,0,0,1,.79-.43,1.59,1.59,0,0,1,1.61.62,1.55,1.55,0,0,1,.29.85,1.51,1.51,0,0,1-.12.63,1.58,1.58,0,0,1-.35.53,1.47,1.47,0,0,1-.53.36,1.5,1.5,0,0,1-.62.13Z" transform="translate(0 -1)"/></g></g><path class="cls-65" d="M2.5,80.14A2.5,2.5,0,1,0,0,77.64,2.49,2.49,0,0,0,2.5,80.14Z" transform="translate(0 -1)"/><path class="cls-65" d="M50.5,80.14a2.5,2.5,0,1,0-2.5-2.5A2.49,2.49,0,0,0,50.5,80.14Z" transform="translate(0 -1)"/><path class="cls-65" d="M98.5,80.14a2.5,2.5,0,1,0-2.5-2.5A2.49,2.49,0,0,0,98.5,80.14Z" transform="translate(0 -1)"/><path class="cls-65" d="M26.5,80.14a2.5,2.5,0,1,0-2.5-2.5A2.49,2.49,0,0,0,26.5,80.14Z" transform="translate(0 -1)"/><path class="cls-65" d="M74.5,80.14a2.5,2.5,0,1,0-2.5-2.5A2.49,2.49,0,0,0,74.5,80.14Z" transform="translate(0 -1)"/><path class="cls-65" d="M122.5,80.14a2.5,2.5,0,1,0-2.5-2.5A2.49,2.49,0,0,0,122.5,80.14Z" transform="translate(0 -1)"/><path class="cls-65" d="M2.5,146.15a2.5,2.5,0,1,0-2.5-2.5A2.5,2.5,0,0,0,2.5,146.15Z" transform="translate(0 -1)"/><path class="cls-65" d="M50.5,146.15a2.5,2.5,0,1,0-2.5-2.5A2.5,2.5,0,0,0,50.5,146.15Z" transform="translate(0 -1)"/><path class="cls-65" d="M98.5,146.15a2.5,2.5,0,1,0-2.5-2.5A2.5,2.5,0,0,0,98.5,146.15Z" transform="translate(0 -1)"/><path class="cls-65" d="M26.5,146.15a2.5,2.5,0,1,0-2.5-2.5A2.5,2.5,0,0,0,26.5,146.15Z" transform="translate(0 -1)"/><path class="cls-65" d="M74.5,146.15a2.5,2.5,0,1,0-2.5-2.5A2.5,2.5,0,0,0,74.5,146.15Z" transform="translate(0 -1)"/><path class="cls-65" d="M122.5,146.15a2.5,2.5,0,1,0-2.5-2.5A2.5,2.5,0,0,0,122.5,146.15Z" transform="translate(0 -1)"/><path class="cls-65" d="M2.5,102.14A2.5,2.5,0,1,0,0,99.64,2.49,2.49,0,0,0,2.5,102.14Z" transform="translate(0 -1)"/><path class="cls-65" d="M50.5,102.14a2.5,2.5,0,1,0-2.5-2.5A2.49,2.49,0,0,0,50.5,102.14Z" transform="translate(0 -1)"/><path class="cls-65" d="M98.5,102.14a2.5,2.5,0,1,0-2.5-2.5A2.49,2.49,0,0,0,98.5,102.14Z" transform="translate(0 -1)"/><path class="cls-65" d="M26.5,102.14a2.5,2.5,0,1,0-2.5-2.5A2.49,2.49,0,0,0,26.5,102.14Z" transform="translate(0 -1)"/><path class="cls-65" d="M74.5,102.14a2.5,2.5,0,1,0-2.5-2.5A2.49,2.49,0,0,0,74.5,102.14Z" transform="translate(0 -1)"/><path class="cls-65" d="M122.5,102.14a2.5,2.5,0,1,0-2.5-2.5A2.49,2.49,0,0,0,122.5,102.14Z" transform="translate(0 -1)"/><path class="cls-65" d="M2.5,168.15a2.5,2.5,0,1,0-2.5-2.5A2.5,2.5,0,0,0,2.5,168.15Z" transform="translate(0 -1)"/><path class="cls-65" d="M50.5,168.15a2.5,2.5,0,1,0-2.5-2.5A2.5,2.5,0,0,0,50.5,168.15Z" transform="translate(0 -1)"/><path class="cls-65" d="M98.5,168.15a2.5,2.5,0,1,0-2.5-2.5A2.5,2.5,0,0,0,98.5,168.15Z" transform="translate(0 -1)"/><path class="cls-65" d="M26.5,168.15a2.5,2.5,0,1,0-2.5-2.5A2.5,2.5,0,0,0,26.5,168.15Z" transform="translate(0 -1)"/><path class="cls-65" d="M74.5,168.15a2.5,2.5,0,1,0-2.5-2.5A2.5,2.5,0,0,0,74.5,168.15Z" transform="translate(0 -1)"/><path class="cls-65" d="M122.5,168.15a2.5,2.5,0,1,0-2.5-2.5A2.5,2.5,0,0,0,122.5,168.15Z" transform="translate(0 -1)"/><path class="cls-65" d="M2.5,124.14a2.5,2.5,0,1,0-2.5-2.5A2.49,2.49,0,0,0,2.5,124.14Z" transform="translate(0 -1)"/><path class="cls-65" d="M50.5,124.14a2.5,2.5,0,1,0-2.5-2.5A2.49,2.49,0,0,0,50.5,124.14Z" transform="translate(0 -1)"/><path class="cls-65" d="M98.5,124.14a2.5,2.5,0,1,0-2.5-2.5A2.49,2.49,0,0,0,98.5,124.14Z" transform="translate(0 -1)"/><path class="cls-65" d="M26.5,124.14a2.5,2.5,0,1,0-2.5-2.5A2.49,2.49,0,0,0,26.5,124.14Z" transform="translate(0 -1)"/><path class="cls-65" d="M74.5,124.14a2.5,2.5,0,1,0-2.5-2.5A2.49,2.49,0,0,0,74.5,124.14Z" transform="translate(0 -1)"/><path class="cls-65" d="M122.5,124.14a2.5,2.5,0,1,0-2.5-2.5A2.49,2.49,0,0,0,122.5,124.14Z" transform="translate(0 -1)"/><path class="cls-65" d="M2.5,190.15a2.5,2.5,0,1,0-2.5-2.5A2.5,2.5,0,0,0,2.5,190.15Z" transform="translate(0 -1)"/><path class="cls-65" d="M50.5,190.15a2.5,2.5,0,1,0-2.5-2.5A2.5,2.5,0,0,0,50.5,190.15Z" transform="translate(0 -1)"/><path class="cls-65" d="M98.5,190.15a2.5,2.5,0,1,0-2.5-2.5A2.5,2.5,0,0,0,98.5,190.15Z" transform="translate(0 -1)"/><path class="cls-65" d="M26.5,190.15a2.5,2.5,0,1,0-2.5-2.5A2.5,2.5,0,0,0,26.5,190.15Z" transform="translate(0 -1)"/><path class="cls-65" d="M74.5,190.15a2.5,2.5,0,1,0-2.5-2.5A2.5,2.5,0,0,0,74.5,190.15Z" transform="translate(0 -1)"/><path class="cls-65" d="M122.5,190.15a2.5,2.5,0,1,0-2.5-2.5A2.5,2.5,0,0,0,122.5,190.15Z" transform="translate(0 -1)"/></svg>