<svg id="Layer_1" data-name="Layer 1" xmlns="http://www.w3.org/2000/svg" xmlns:xlink="http://www.w3.org/1999/xlink" viewBox="0 0 559.05 341.44"><defs><style>.cls-1,.cls-5,.cls-59,.cls-72{fill:#cfcfcf;}.cls-1{opacity:0.25;}.cls-1,.cls-4,.cls-5,.cls-55,.cls-56,.cls-57,.cls-58,.cls-59,.cls-60,.cls-7{isolation:isolate;}.cls-2{fill:#7c7c7c;}.cls-3,.cls-4,.cls-5,.cls-55,.cls-56,.cls-57,.cls-58,.cls-7{opacity:0.3;}.cls-4,.cls-46{fill:#fff;}.cls-6,.cls-7{fill:#bcbcbc;}.cls-8{fill:#cebbf7;}.cls-9{fill:#f4b48e;}.cls-10{fill:#7b7bff;}.cls-11{fill:#3e2f18;}.cls-12{fill:#ede7ff;}.cls-13{fill:#745c80;}.cls-14{fill:#6a5477;}.cls-15{fill:#954c28;}.cls-16{fill:#fff8aa;}.cls-17{fill:#c6764e;}.cls-18{fill:#e29668;}.cls-19{fill:#4dcaed;}.cls-20{fill:#ffd293;}.cls-21{fill:#ff8098;}.cls-22{fill:#d55871;}.cls-23{fill:#ffa0a0;}.cls-24{fill:#703518;}.cls-25{fill:#232850;}.cls-26{fill:#ffb381;}.cls-27{fill:#f79d6b;}.cls-28{fill:#dbdbdb;}.cls-29{fill:#f6f5f0;}.cls-30{fill:#8abbc8;}.cls-31{fill:#845538;}.cls-32{fill:#c4c8c9;}.cls-33{fill:#a5a5a5;}.cls-34{fill:#f6f4ea;}.cls-35{fill:#e4e4e4;}.cls-36{fill:#896022;}.cls-37{fill:#26e26f;}.cls-38{fill:#d39235;}.cls-39{fill:#d9d9db;}.cls-40{fill:#725dff;}.cls-41{fill:#f5c096;}.cls-42{fill:#e7937b;}.cls-43{fill:#2c3044;}.cls-44{fill:#373d60;}.cls-45{fill:#463423;}.cls-47{fill:#c6c6c6;}.cls-48{fill:#6458f9;}.cls-49{fill:#8e5d41;}.cls-50{fill:#bc6535;}.cls-51{fill:#299caf;}.cls-52{fill:#207b89;}.cls-53{fill:#dd8668;}.cls-54{fill:#efac81;}.cls-55{fill:url(#linear-gradient);}.cls-56{fill:#e5e5e5;}.cls-57{fill:#e8efef;}.cls-58{fill:#828feb;}.cls-59,.cls-60{opacity:0.4;}.cls-60{fill:#c40248;}.cls-61{fill:#f27f2e;}.cls-62{fill:#ffb180;}.cls-63{fill:#2c3248;}.cls-64{fill:#3d475b;}.cls-65{fill:#dd6b1f;}.cls-66{fill:url(#linear-gradient-2);}.cls-67{fill:#f0f1f1;}.cls-68{fill:#d0d2d3;}.cls-69{fill:#e6e7e8;}.cls-70{fill:#746980;}.cls-71{fill:#34225e;}.cls-73{fill:#212121;}</style><linearGradient id="linear-gradient" x1="267.23" y1="190.46" x2="287.83" y2="190.46" gradientTransform="matrix(1, 0, 0, -1, 0, 344)" gradientUnits="userSpaceOnUse"><stop offset="0" stop-color="#e80077"/><stop offset="0.23" stop-color="#eb0066"/><stop offset="0.66" stop-color="#f6003c"/><stop offset="1" stop-color="#ff0018"/></linearGradient><linearGradient id="linear-gradient-2" x1="102.52" y1="76.66" x2="108.93" y2="76.66" xlink:href="#linear-gradient"/></defs><path class="cls-1" d="M49,331.11,530.39,331c50.54-19.69-4.59-140.33-23.84-186.48-4.09-9.8-8.25-19.72-13.9-27.58-17.54-24.38-44.88-23.17-68-14S379,127.58,355.13,127c-22.19-.52-43.95-15.83-58.78-40.62C284,65.74,264,49.31,250.15,31c-23.5-31-47-33.57-76.93-29.52-17.88,2.43-34.82,16.49-48,34.85-23,32.08-29.86,85-54.34,114.46-17.51,21.09-42,27.44-57.33,52.06C-20.45,257.41,16.32,330.44,49,331.11Z" transform="translate(0 0)"/><path class="cls-2" d="M27.13,331.11,555.41,331s36.5,8.54-121.85,9.85C147,343.23-30.41,338,27.13,331.11Z" transform="translate(0 0)"/><g class="cls-3"><path class="cls-4" d="M225.59,92.58H118.44V278H225.59Z" transform="translate(0 0)"/></g><g class="cls-3"><g class="cls-3"><g class="cls-3"><g class="cls-3"><path class="cls-5" d="M224.73,147.8H119.38v4.14H224.73Z" transform="translate(0 0)"/></g><g class="cls-3"><path class="cls-5" d="M223.37,151.11H120.75a1.25,1.25,0,0,1-.86-.37,1.3,1.3,0,0,1-.35-.87,1.25,1.25,0,0,1,.35-.86,1.22,1.22,0,0,1,.86-.38H223.37a1.22,1.22,0,0,1,.85.38,1.25,1.25,0,0,1,.35.86,1.3,1.3,0,0,1-.35.87,1.25,1.25,0,0,1-.85.37Z" transform="translate(0 0)"/></g></g><g class="cls-3"><g class="cls-3"><path class="cls-5" d="M224.65,204h-105v4.13h105Z" transform="translate(0 0)"/></g><g class="cls-3"><path class="cls-5" d="M223.29,207.3H121a1.24,1.24,0,0,1,0-2.48h102.3a1.24,1.24,0,0,1,0,2.48Z" transform="translate(0 0)"/></g></g><g class="cls-3"><g class="cls-3"><path class="cls-5" d="M174.08,93.58H170V277.41h4.13Z" transform="translate(0 0)"/></g><g class="cls-3"><path class="cls-5" d="M172,277a1.24,1.24,0,0,1-.87-.36,1.26,1.26,0,0,1-.37-.88V94.4a1.32,1.32,0,0,1,.09-.48,1.17,1.17,0,0,1,.27-.42,1.09,1.09,0,0,1,.4-.27,1.15,1.15,0,0,1,.48-.1,1.16,1.16,0,0,1,.49.1,1.09,1.09,0,0,1,.4.27,1.17,1.17,0,0,1,.27.42,1.13,1.13,0,0,1,.08.48V275.76A1.23,1.23,0,0,1,172,277Z" transform="translate(0 0)"/></g></g></g><g class="cls-3"><path class="cls-5" d="M223.11,95.06V275.51H120.92V95.06Zm2.48-2.48H118.44V278H225.58V92.58Z" transform="translate(0 0)"/></g></g><path class="cls-6" d="M222,275.74H108.72a3.68,3.68,0,0,1-1.44-.26,3.67,3.67,0,0,1-2-2,3.69,3.69,0,0,1-.29-1.43,3.74,3.74,0,0,1,.29-1.44,3.6,3.6,0,0,1,.82-1.21,3.76,3.76,0,0,1,1.23-.81,3.68,3.68,0,0,1,1.44-.26H222a3.76,3.76,0,0,1,1.45.26,3.72,3.72,0,0,1,1.22.81,3.49,3.49,0,0,1,.83,1.21,3.73,3.73,0,0,1,.28,1.44,3.68,3.68,0,0,1-.28,1.43,3.62,3.62,0,0,1-.83,1.22,3.69,3.69,0,0,1-1.22.8A3.76,3.76,0,0,1,222,275.74Z" transform="translate(0 0)"/><g class="cls-3"><g class="cls-3"><path class="cls-4" d="M499.16,92.58H392V278H499.16Z" transform="translate(0 0)"/></g><g class="cls-3"><g class="cls-3"><g class="cls-3"><g class="cls-3"><path class="cls-5" d="M498.31,147.8H393v4.14H498.31Z" transform="translate(0 0)"/></g><g class="cls-3"><path class="cls-5" d="M496.94,151.11H394.32a1.27,1.27,0,0,1-.86-.37,1.3,1.3,0,0,1-.35-.87,1.25,1.25,0,0,1,.35-.86,1.24,1.24,0,0,1,.86-.38H496.94a1.25,1.25,0,0,1,1.2,1.24,1.25,1.25,0,0,1-.35.87,1.23,1.23,0,0,1-.85.37Z" transform="translate(0 0)"/></g></g><g class="cls-3"><g class="cls-3"><path class="cls-5" d="M498.22,204h-105v4.13h105Z" transform="translate(0 0)"/></g><g class="cls-3"><path class="cls-5" d="M496.86,207.3H394.56a1.24,1.24,0,0,1,0-2.48h102.3a1.24,1.24,0,0,1,.85.38,1.24,1.24,0,0,1,0,1.73A1.23,1.23,0,0,1,496.86,207.3Z" transform="translate(0 0)"/></g></g><g class="cls-3"><g class="cls-3"><path class="cls-5" d="M447.65,93.58h-4.13V277.41h4.13Z" transform="translate(0 0)"/></g><g class="cls-3"><path class="cls-5" d="M445.59,277a1.28,1.28,0,0,1-.48-.09,1.27,1.27,0,0,1-.67-.67,1.32,1.32,0,0,1-.09-.48V94.4a1.25,1.25,0,0,1,1.24-1.24,1.26,1.26,0,0,1,1.24,1.24V275.76a1.15,1.15,0,0,1-.1.48,1.18,1.18,0,0,1-.27.4,1.23,1.23,0,0,1-.4.27,1.27,1.27,0,0,1-.47.09Z" transform="translate(0 0)"/></g></g></g><g class="cls-3"><path class="cls-5" d="M496.68,95.06V275.51H394.49V95.06Zm2.48-2.48H392V278H499.16V92.58Z" transform="translate(0 0)"/></g></g><g class="cls-3"><path class="cls-7" d="M495.62,275.74H382.29a3.72,3.72,0,0,1,0-7.43H495.62a3.7,3.7,0,0,1,3.65,3.72,3.69,3.69,0,0,1-3.65,3.71Z" transform="translate(0 0)"/></g></g><path class="cls-8" d="M213.76,269.34c-.66-2.94-18.45-9.45-27.39-10.62,0,0-6.31-8.68-8.77-6.29-3.09,3-2.62,18.14,1.55,19.11,9.11,2.11,22.26,2.65,26.7,2.19-2.11,2-2.81,5.94-2.57,8.54.4,4.36,5.58,16.29,5.55,21.25,0,3.29,3.74,2.37,3.64,1.37C210.76,288.69,214.92,274.62,213.76,269.34Z" transform="translate(0 0)"/><path class="cls-9" d="M163.67,241a35.58,35.58,0,0,1-1.39,6.46c-3.07,7.91-6,19.71-6.94,20.1-1.15.49-3.83-1.05-4.6-.8s-3.67,3.63-3,3.63h9.42c1.47,0,9.42-15.12,10-17.55s2-9.57,2-9.57Z" transform="translate(0 0)"/><path class="cls-10" d="M212.28,302.86c1.07,2.41,3.18,7.93,2.61,8.2s-8.6-7.15-8.82-8.73,1.21-1.27,2.36-1.76A38.27,38.27,0,0,1,212.28,302.86Z" transform="translate(0 0)"/><path class="cls-11" d="M184.38,204.1a9.73,9.73,0,0,0-4.49-2,9.88,9.88,0,0,0-4.91.41c-.76.27,5.12,14.09,7.35,12.1C183.65,213.4,188.58,207.65,184.38,204.1Z" transform="translate(0 0)"/><path class="cls-12" d="M165.6,265.59a7,7,0,0,0,5.92,7.7c2.75.36,19.43,14,19.8,15.18,1.21,3.68-.78,5.56.2,9.62,1.12,4.6,14.47,19.39,16,22.14s4,1,3.43,0c-6.87-12.63-10-28.31-10.24-32.82-.33-6.07-20.84-29.83-26.84-37.77C173.87,249.64,166.35,257.44,165.6,265.59Z" transform="translate(0 0)"/><path class="cls-9" d="M193.79,243.39c-.5-.5-2.71.5-3.18,0-2.7-2.83-5.23-17.45-6.09-19-.64-1.14-1.87-2.28-3.14-1.94s-2.81,2.13-2,5.25c1,3.93,4.35,17.63,8.07,19.64C191,249.29,196.33,244.75,193.79,243.39Z" transform="translate(0 0)"/><path class="cls-13" d="M183.65,241.57c1.33.54,5.75-.9,5.28-2.27-1.87-5.4-3-12.67-4.31-15.06a3.09,3.09,0,0,0-3.24-1.75c-1.27.33-2.81,2.13-2,5.25C180.05,230.24,178.76,239.57,183.65,241.57Z" transform="translate(0 0)"/><path class="cls-14" d="M187.35,234.17c-.3,3.4-2.31,3-2.45,3.65-.28,1.36.06,2.27.29,3.8l-3.8.14V221.9a6.37,6.37,0,0,1,3.07,2c.5.68.74,2.84.8,5.28C185.3,230.61,187.47,232.78,187.35,234.17Z" transform="translate(0 0)"/><path class="cls-13" d="M184.62,237.57a22.18,22.18,0,0,0-.41,4.38c-.06,7.38,2.46,15.85,1.81,16.3-4.36,3.06-18.54,1.69-18.91.76s5.41-7.5,5.75-12.63c.46-7.2-8.41-17.11-4.7-22.3.57-.8,4.8-3.18,8.44-3.2a14.42,14.42,0,0,1,4.51.76,6.37,6.37,0,0,1,3.07,2c.5.68.73,2.84.8,5.28,0,1.45,2.48,3.52,2.36,4.9C187.05,237.22,184.76,236.91,184.62,237.57Z" transform="translate(0 0)"/><path class="cls-14" d="M171.51,228.58s-.39,7.7,1.46,11.63c1.34,2.84-.16,4.52-.16,4.52s-.8-4.78-2.27-7.22a29.1,29.1,0,0,1-2.29-5.68Z" transform="translate(0 0)"/><path class="cls-9" d="M178.82,213.72c-.65,5.2.5,7.1.93,8.23s-7.08,1.34-6.22.09c1.3-1.89,1.58-5.36,1-8.83C174.26,211.23,178.82,213.72,178.82,213.72Z" transform="translate(0 0)"/><path class="cls-9" d="M184.89,205.85c1.67,5.77-1.84,11.43-3.45,11.82s-6.84-2.48-7.36-8.5C173.74,205.2,183.68,201.65,184.89,205.85Z" transform="translate(0 0)"/><path class="cls-11" d="M179.16,199.63c3.85.32,6.76,2.86,6.21,5.75-.4,2.1-7.53-.06-9,3.25-1.77-2.4-2.43,2.55-.83,1.91a11.66,11.66,0,0,1-.36,1.44c.12.28.24.56.35.84a24.83,24.83,0,0,1,1.6,5.86c.22,1.74.17,3.75-1.18,5a3,3,0,0,1-4.14,0,7.43,7.43,0,0,1-1.59-2.07,15,15,0,0,0-1.64-2.38,5.15,5.15,0,0,1-1.21-2.25,7.05,7.05,0,0,1,0-2.55,33,33,0,0,1,1.62-5.69,19.72,19.72,0,0,1,2.56-5,11.89,11.89,0,0,1,2.28-2.42,7,7,0,0,1,2.46-1.41,7.11,7.11,0,0,1,2.82-.34Zm-2.75,21.72a12.79,12.79,0,0,0-.59-5.49c-.28-1-.63-2-1-2.9-.17.28-.36.41-.54.24-2.89-2.69-3.45-5.9-2.59-8.52a22.49,22.49,0,0,0-2.47,5.5,23.37,23.37,0,0,0-1.27,5.15,4.68,4.68,0,0,0,.37,2.45,14.53,14.53,0,0,0,1.55,2c1,1.31,1.52,3.12,3.07,3.88C174.66,224.52,176.11,222.94,176.41,221.35Z" transform="translate(0 0)"/><path class="cls-11" d="M175.82,215.86a12.79,12.79,0,0,1,.59,5.49c-.3,1.6-1.75,3.17-3.46,2.34-1.56-.75-2.11-2.57-3.08-3.87a14,14,0,0,1-1.54-2,4.77,4.77,0,0,1-.38-2.45,24.09,24.09,0,0,1,1.27-5.15,22.86,22.86,0,0,1,2.48-5.5c-.87,2.62-.3,5.84,2.59,8.52.18.17.36,0,.53-.24C175.19,213.91,175.54,214.87,175.82,215.86Z" transform="translate(0 0)"/><path class="cls-15" d="M191.05,248.55h4.66l.9-10.58h-6.45Z" transform="translate(0 0)"/><path class="cls-16" d="M193.38,245.37A2.41,2.41,0,1,0,191,243,2.41,2.41,0,0,0,193.38,245.37Z" transform="translate(0 0)"/><path class="cls-15" d="M194.17,241.49l-1.89,2.72-.05,0-.07,0h-.07l-.05,0a2,2,0,0,1-.3-1.09,1.92,1.92,0,0,1,.35-1.06,2,2,0,0,1,2-.8l.06,0s0,0,0,.06a.09.09,0,0,1,0,.07.11.11,0,0,1,0,.06Z" transform="translate(0 0)"/><path class="cls-15" d="M194.47,241.7a.1.1,0,0,1,.05,0l.07,0h.06s0,0,.06,0a2,2,0,0,1,.3,1.08,1.9,1.9,0,0,1-.35,1.08,2,2,0,0,1-.88.7,2,2,0,0,1-1.13.09l-.06,0a.16.16,0,0,1,0-.06.13.13,0,0,1,0-.06.09.09,0,0,1,0-.07Z" transform="translate(0 0)"/><path class="cls-17" d="M189.59,238.61h7.58l-.3-1.52h-7Z" transform="translate(0 0)"/><path class="cls-17" d="M190.18,238h6.4l-.3-1.52h-5.8Z" transform="translate(0 0)"/><path class="cls-13" d="M169.48,243.27a73.55,73.55,0,0,0,2-16.25c-.06-2.2-2.12-3.7-3.25-3s-2.34,2.59-3.2,5.7c-.8,2.88-1.32,9.89-1.94,12.78C162.85,243.71,169.11,244.48,169.48,243.27Z" transform="translate(0 0)"/><path class="cls-10" d="M210.19,318.81c2.22,1,9.71,2.48,8.63,3.48s-10.2,1-11.52.42c-1.1-.46-.4-1.84,0-2.83a14.13,14.13,0,0,1,2.89-1.07Z" transform="translate(0 0)"/><path class="cls-9" d="M194.87,242.92c.38-.73,1.29-1.72,1.69-1.62s.4.77.24,1-.38.35-.27.59.88.54.8,1-.09,2.27-.8,2.42a2.84,2.84,0,0,1-2.08-.47,3.16,3.16,0,0,1,.39-1.85c.27-.19.7-.43.66-.57s-.37,0-.57-.14a.29.29,0,0,1-.11-.19A.27.27,0,0,1,194.87,242.92Z" transform="translate(0 0)"/><path class="cls-9" d="M190.18,241c-.73.06,0,2,.43,2.38S191.25,240.92,190.18,241Z" transform="translate(0 0)"/><path class="cls-18" d="M154.53,270.52h-4.18c-.3,0-.35-.19-.35-.25,0-.39.87-1,1.38-1.11a5.7,5.7,0,0,1,.83-.09,6.51,6.51,0,0,0,1.58-.25.19.19,0,0,1,.13,0,.18.18,0,0,1,.07.1.17.17,0,0,1,0,.12.22.22,0,0,1-.1.09,7.18,7.18,0,0,1-1.66.26,6.82,6.82,0,0,0-.79.08,2.34,2.34,0,0,0-1.07.68h4.22a.09.09,0,0,1,.06,0l0,.06a.14.14,0,0,1,0,.07.14.14,0,0,1,0,.06.13.13,0,0,1,0,.06.09.09,0,0,1-.06,0h-.06Z" transform="translate(0 0)"/><path class="cls-19" d="M61.17,242.73c-20.2,3.32-26.83,72.54-17.4,86.39,3.83,5.61,88.62,7.63,100.75,0C151.13,325,133,300,89.46,298,81,271.89,76.74,240.19,61.17,242.73Z" transform="translate(0 0)"/><path class="cls-20" d="M101.7,282.07c-1.7,1.63-3.73,2.5-4.86,1.67a1.09,1.09,0,0,1-.25-.23c-.63-.71-.17-2.6,1.14-4.1,2-2.29,4.31-3,5.36-2.37a1,1,0,0,1,.17.12C104,277.87,103.83,280,101.7,282.07Z" transform="translate(0 0)"/><path class="cls-21" d="M103.4,277.79c-.09.3-.74.11-.89.34s.3,1,0,1.45-.81,0-1,.2.17,1,0,1.36-1.08-.11-1.5.15.3.79,0,1-.57-.32-1.07,0,.55.83,0,1.13a8,8,0,0,1-2.07.3,1.94,1.94,0,0,1-.26-.23c-.63-.72-.17-2.6,1.14-4.11,2-2.29,4.31-3,5.37-2.37a1.14,1.14,0,0,1,.3.76Z" transform="translate(0 0)"/><path class="cls-22" d="M99.77,279.52c.16-.35-.2-.64-.91.11s-1.88,2-.81,1.63a3.43,3.43,0,0,0,1.72-1.74Z" transform="translate(0 0)"/><path class="cls-23" d="M97.54,281.57a.13.13,0,0,1-.1,0,.15.15,0,0,1,0-.1.12.12,0,0,1,0-.1.18.18,0,0,1,.09-.06,3.6,3.6,0,0,0,1.46-.91,3.66,3.66,0,0,0,.87-1.47.14.14,0,0,1,0-.06l0,0,.06,0H100l0,0,0,0,0,.06V279a4,4,0,0,1-1,1.63,3.85,3.85,0,0,1-1.61,1Z" transform="translate(0 0)"/><path class="cls-24" d="M459.34,188.4a4.2,4.2,0,0,1,1.76-2.46c1.59-.56.2-1.95.92-2.87.42-.54,1.45-.22,1.83-.74s-.11-1.63.75-2.26c.68-.49,1.39.32,2,.12.85-.29.85-1.39,2.2-1.73,1.08-.27,1.88.45,2.67.65,1,.25,1.94-.69,3-.47,1.37.3,1,1.45,2,2.13.73.5,2.2-.44,3,.1,1,.66.36,2.18,1.52,2.58a7.62,7.62,0,0,1,1.92.59c.35.42.21,3.59.4,4.1.25.71,3.16,2,3.37,2.82.27,1.09-.44,3.1-.37,4.22s1.11,1.66,1.73,2.48a3.49,3.49,0,0,1,.31,3.1,3.5,3.5,0,0,1-2.3,2.09,8.43,8.43,0,0,0,.54,2.32,2.26,2.26,0,0,1,.09,1.18,2.1,2.1,0,0,1-.53,1.05c-.73.62-2.07.43-2.46,1.3a2.54,2.54,0,0,0-.13.77,4.25,4.25,0,0,1-2.92,3.24,10.87,10.87,0,0,1-4.54.31c-4.92-.45-7.26-1.05-8.43-2.6-.84-1.1-1.09-2.73-2.33-3.34a8.47,8.47,0,0,0-1.79-.42,1.55,1.55,0,0,1-1.27-1.17,7.7,7.7,0,0,0,0-1c-.22-.91-1.86-.8-2.09-1.7-.17-.65.56-1.23.53-1.9,0-.9-1.39-1.33-1.4-2.23s1.74-1.56,1.52-2.58c-.12-.57-.81-.82-1.08-1.34-.53-1,.85-2,1-3.17C460.94,190.67,459.24,189.16,459.34,188.4Z" transform="translate(0 0)"/><path class="cls-19" d="M467.13,218.54c-2.37-5.52-4.73-10.43-5.12-9.22-2.27,6.88-11.54,21.94-8.47,27.16s18.87-5,18.87-5S469.76,224.66,467.13,218.54Z" transform="translate(0 0)"/><path class="cls-25" d="M462.77,332.06c-2.62.86-7.65,2.77-7.27,3.72.26.65,15.05.08,15.67-.53.45-.44.27-5.22-.49-5C470.15,330,462.77,332.06,462.77,332.06Z" transform="translate(0 0)"/><path class="cls-26" d="M465.21,282.09c1,8.43,3,45.45,2.13,47.68-.18.45-6.86,2.92-6.86,3.38,0,.77,4.57.41,7.44-.43,2.23-.65,2.5-1.55,2.66-2.07.39-1.29,8.61-27.68,8.42-37s-7.09-18.45-7.09-18.45S464.73,278,465.21,282.09Z" transform="translate(0 0)"/><path class="cls-19" d="M472.13,203.88c-3.55-.49-9.5,4-10.13,5.44-1,2.34-.8,3.78-.94,6.88,0,.58-2.2,3.48-2.08,4.67a5.19,5.19,0,0,0,.89,1.83,5,5,0,0,0,1.52,1.35c0,4.44,2.6,9.88,2.34,13.53-.14,2,16.41,1.18,16.16-1.1-1.17-10.6,5.27-23.62,3.2-28C482.2,206.58,475.62,204.36,472.13,203.88Z" transform="translate(0 0)"/><path class="cls-26" d="M469.15,193.24c-.58,9.74-1.88,12.06-1.79,13.45.05.82,7,1.4,7.4-1.3.23-1.44-1.42-9.4-1-14.75C471.43,191.07,469.3,190.66,469.15,193.24Z" transform="translate(0 0)"/><path class="cls-27" d="M469,199s4.78-3.34,4.74-4.73-.1-1.2-.1-1.2l-4.92,5.29-.1.85Z" transform="translate(0 0)"/><path class="cls-26" d="M463.42,185.74c-1.4,3.76-1,11.29,1.61,13,1.74,1.16,7.64-1.2,8.94-6.72.58.39,1.48-1.42,1.38-2.8-.08-1-1-1.18-1.6-.37a1.31,1.31,0,0,1-.79.34,1.27,1.27,0,0,1-.82-.23c-.73-.66-.48-2.25-1-2.72-.7-.63-1.71.19-2.48-.41s-.7-1.7-1.43-1.87c-.45-.1-1,.78-1.59.78s-.56-.71-.86-.7C464.3,184,463.83,184.64,463.42,185.74Z" transform="translate(0 0)"/><path class="cls-19" d="M470.7,224.66a6.91,6.91,0,0,1-1.81-.23,3.25,3.25,0,0,1-2.08-1.49.33.33,0,0,1,0-.13.61.61,0,0,1,0-.14.47.47,0,0,1,.07-.12.28.28,0,0,1,.1-.09.33.33,0,0,1,.13,0,.32.32,0,0,1,.14,0,.23.23,0,0,1,.12.06.31.31,0,0,1,.09.11,2.39,2.39,0,0,0,.71.74,2.48,2.48,0,0,0,.94.41,7.57,7.57,0,0,0,5-.59.3.3,0,0,1,.26,0,.35.35,0,0,1,.25.42.36.36,0,0,1-.16.22,8.11,8.11,0,0,1-3.77.89Z" transform="translate(0 0)"/><path class="cls-19" d="M482.85,208.1c2.66,2.35,16.82,22.3,13.32,25a3.41,3.41,0,0,1-1.91.36,3.46,3.46,0,0,1-1.79-.76c-2.66-2.33-6.4-10.3-11.53-15C478.39,215.34,481.21,206.65,482.85,208.1Z" transform="translate(0 0)"/><path class="cls-25" d="M487.16,328.61l-3.14,6a1.06,1.06,0,0,0-.12.5,1.08,1.08,0,0,0,.15.5,1,1,0,0,0,.87.49h6.42a1,1,0,0,0,.42-.09,1.15,1.15,0,0,0,.34-.25,1.17,1.17,0,0,0,.21-.36,1.21,1.21,0,0,0,.05-.42l-.68-6.8Z" transform="translate(0 0)"/><path class="cls-26" d="M480.59,297.1c0,3.77,7.57,22.26,7.12,30-2.67,5.57-2.57,7.78-.34,8.18,4.54.82,4.12-3.72,4.26-6.36.49-9.07.49-24.57.49-29.05C492.12,296.5,480.59,294.83,480.59,297.1Z" transform="translate(0 0)"/><path class="cls-25" d="M484.6,336.07a.76.76,0,0,1-.7-.44.76.76,0,0,1-.08-.42.87.87,0,0,1,.16-.4c1-1.39,2.69-2.46,4.18-2.31a4.72,4.72,0,0,1,3.86,2.41.77.77,0,0,1,.09.39.72.72,0,0,1-.1.38.71.71,0,0,1-.29.28.73.73,0,0,1-.38.11Z" transform="translate(0 0)"/><path class="cls-28" d="M463.73,237.58c-3.25,6.69-4.64,18.26-4.64,21.29,0,6.2,5.85,36.71,8,61.72.42,4.82,24.91,3,26.38,1.38.78-.83,2.29-18.68-4.08-37.45,1.27-17.33.5-30.22-.82-33.76-4.17-11.2-8.72-14.28-8.72-14.28s-3,1.38-10.14,1.47C463.22,238,463.73,237.58,463.73,237.58Z" transform="translate(0 0)"/><path class="cls-29" d="M475.26,236.61c0,.86-2.62,2.64-5.78,2.64s-5.68-1.78-5.68-2.64,2.57-1.57,5.73-1.57S475.26,235.74,475.26,236.61Z" transform="translate(0 0)"/><path class="cls-30" d="M469.53,237.66c2.68,0,4.86-.47,4.86-1s-2.18-1.06-4.86-1.06-4.85.47-4.85,1.06S466.85,237.66,469.53,237.66Z" transform="translate(0 0)"/><path class="cls-26" d="M477.41,235.8a4.84,4.84,0,0,1-2.36.1c-.43-.17-1.65-1.06-2.16-1s-1.51.56-2.15.74-1.15,0-1.14.24a1,1,0,0,0,.86.7c.44,0,1.77-.9,1.79-.2.05,1.44-2.43,1.77-3.76,2-.61.11-3-.43-3,0,.05.79,3.56,2,5.83,1.54a33.78,33.78,0,0,0,5.5-1.46c.47-.19,1.45-.39,1.55-.73C478.55,237.19,478,235.68,477.41,235.8Z" transform="translate(0 0)"/><path class="cls-19" d="M491.49,228.4c-.13.83-12.34,6.18-14.91,6.87-.84.22.34,3.13.95,3.34.84.28,15.38-1.32,18.78-5.76C498.53,230,491.78,226.6,491.49,228.4Z" transform="translate(0 0)"/><path class="cls-29" d="M464.68,234.12a1.68,1.68,0,0,1-1.57-1.05,1.68,1.68,0,0,1,.37-1.85,1.64,1.64,0,0,1,.87-.46,1.73,1.73,0,0,1,1,.09,1.68,1.68,0,0,1,1.05,1.57,1.7,1.7,0,0,1-.5,1.21,1.67,1.67,0,0,1-1.2.49Zm0-2.69a1,1,0,0,0-.55.17,1,1,0,0,0-.36.45.93.93,0,0,0-.06.57,1,1,0,0,0,.78.78.93.93,0,0,0,.57-.06,1,1,0,0,0,.45-.36,1,1,0,0,0,.16-.55,1,1,0,0,0-1-1Z" transform="translate(0 0)"/><path class="cls-26" d="M456,232.73c1.38-.17,1.32-.2,1.7-.51s1.42-1.73,2.05-1.83,2,0,2.8,0,1.32-.42,1.42-.17a1,1,0,0,1-.16.64,1.06,1.06,0,0,1-.52.41c-.51.17-2.05-.31-2.15.45-.07.55,3.66-.25,3.79.22.17.63-1,.66-1.05,1.05a4.66,4.66,0,0,1-1.34,2.33c-1.5.64-5.12.28-5.74.32a1,1,0,0,1-.6-.07,1.06,1.06,0,0,1-.45-.39C455.3,234.6,455.26,232.82,456,232.73Z" transform="translate(0 0)"/><path class="cls-19" d="M481.77,218.85a.32.32,0,0,1-.14,0,.27.27,0,0,1-.12-.09c-1-1.14-1.87-2.31-1.88-2.32a.34.34,0,0,1-.06-.26.31.31,0,0,1,.14-.23.35.35,0,0,1,.26-.07.43.43,0,0,1,.23.14s.85,1.15,1.84,2.28a.37.37,0,0,1,.08.18.32.32,0,0,1,0,.19.28.28,0,0,1-.13.15.33.33,0,0,1-.19.06Z" transform="translate(0 0)"/><path class="cls-29" d="M471.62,231.23a3.65,3.65,0,0,1-6.23,2.58,3.66,3.66,0,0,1-1.07-2.58C464.33,229.22,471.62,229.22,471.62,231.23Z" transform="translate(0 0)"/><path class="cls-31" d="M465.18,231c0-.38,1.25-.69,2.8-.69s2.79.31,2.79.69-1.25.69-2.79.69S465.18,231.37,465.18,231Z" transform="translate(0 0)"/><path class="cls-32" d="M394.38,296.33H369.17a8.37,8.37,0,0,1-8.33-7.59l-4.61-49.25a8.33,8.33,0,0,1,.4-3.43,8.18,8.18,0,0,1,1.75-3,8.27,8.27,0,0,1,2.8-2,8.36,8.36,0,0,1,3.38-.71H399a8.37,8.37,0,0,1,8.33,9.14l-4.61,49.25a8.37,8.37,0,0,1-8.33,7.59Z" transform="translate(0 0)"/><path class="cls-33" d="M384.29,296.33h-5v39.74h5Z" transform="translate(0 0)"/><path class="cls-33" d="M363.87,336.07a5,5,0,0,1,5-5h25.75a5,5,0,0,1,5,5Z" transform="translate(0 0)"/><path class="cls-33" d="M386.58,301.13H377l-3.09-4.8h15.79Z" transform="translate(0 0)"/><path class="cls-25" d="M395.51,277.81a12.79,12.79,0,0,1,5.87,2.38c3.07,2.47,4.4,9.54,4.4,19.52,0,3-10.89-8.66-25.8-8.66-10.54,0-21.73,1.88-22.84.13-5.26-8.27,12.19-16.5,16.78-16.14S391.56,276,395.51,277.81Z" transform="translate(0 0)"/><path class="cls-19" d="M397,233.45c8.79,8.36,20.82,28.48,15.34,31.62-2.95,1.69-11.34,3.45-16.29.87-.82-.43.32,12.13-.58,11.87-5-1.45-27.77.35-33.75,0-3.46-.2-.72-14.42-4.25-14.5-12.79-.28-16.21.15-17.29-1.63-2.06-3.37,8.09-25.41,18.28-30.13C365.43,228.34,392.22,228.87,397,233.45Z" transform="translate(0 0)"/><path class="cls-25" d="M394.23,278.59c5.26-1.2,9.35,9.52,10.58,12.73s2.22,32.58,1.58,35.43-7.73,3-7.95.9C397.54,319.07,384.63,280.78,394.23,278.59Z" transform="translate(0 0)"/><path class="cls-34" d="M399.33,326.08c-.4,4.28-3.84,10-1.72,10h10.81c.63,0,1-1.5.37-2.76s-2.86-2.92-3.5-7.08C405.09,325,399.45,324.84,399.33,326.08Z" transform="translate(0 0)"/><path class="cls-25" d="M356.53,279.58c-2.77,2.74-1.68,11.25-1.29,14.63s9,29.13,10.6,31.56,7,2.16,7.07.4c.37-7.4.7-23-3.74-36.75C366.51,281.16,359.16,277,356.53,279.58Z" transform="translate(0 0)"/><path class="cls-34" d="M366.88,325.18c-.76,4.42-4.32,10.89-2.19,10.89h10.8c2.5,0-2.36-6.46-3.63-10.89C371.51,324,367.09,324,366.88,325.18Z" transform="translate(0 0)"/><path class="cls-11" d="M382.88,218.61l.39-.1c.77-.18,1.35-.08,2-.67.18-.17,1.11-1.34.79-1.6a1.23,1.23,0,0,0,.84.27,1.29,1.29,0,0,0,.81-.36,1.25,1.25,0,0,0,.07-1.66c.66-.14,1.35-.12,1.6-.75.52-1.34-.35-2-.9-2.73a1.49,1.49,0,0,0,1-.21,1.46,1.46,0,0,0,.61-.85,1.43,1.43,0,0,0-.91-1.71,3.33,3.33,0,0,0,1.08-2.05c0-.79-.94-1.56-1.58-1.09a1.93,1.93,0,0,0-.4-2.2,1.36,1.36,0,0,0-.52-.27,1.3,1.3,0,0,0-.59,0,1.32,1.32,0,0,0-.53.23,1.24,1.24,0,0,0-.39.43,1.72,1.72,0,0,0-3.4.31,4.66,4.66,0,0,0-2.24-1.39,3.54,3.54,0,0,0-1.75-.34,1.24,1.24,0,0,0-1.13,1.18,8.41,8.41,0,0,0-2.34-.55,2.8,2.8,0,0,0-1.18.17,2.75,2.75,0,0,0-1,.65,2.32,2.32,0,0,0-1.36-.65,2.23,2.23,0,0,0-1.47.31,2.28,2.28,0,0,0-1,1.14,2.37,2.37,0,0,0-.08,1.51,1.93,1.93,0,0,0-1.16.35,2,2,0,0,0-.73,1,2,2,0,0,0,0,1.22,2,2,0,0,0,.73,1,3.46,3.46,0,0,0-1.23,3.05,3.51,3.51,0,0,0,.6,1.59,3.34,3.34,0,0,0,1.27,1.12,2.35,2.35,0,0,0-.36,1,2.23,2.23,0,0,0,.13,1.08,1.38,1.38,0,0,0,.75.75,1.44,1.44,0,0,0,1.06,0,1.61,1.61,0,0,0,.16,1.23,1.66,1.66,0,0,0,1,.77,6.14,6.14,0,0,0,2.56.08c1.56-.13,2.91.33,4.49.1a33.92,33.92,0,0,0,4.29-1.36Z" transform="translate(0 0)"/><path class="cls-26" d="M381.34,218.08s2.3,12.38,1.47,14.1c-1.4,2.87-11.33,1-13-1.7-.59-1,.64-3.8,1.38-6.62.94-3.58,1.53-7.17,1.53-7.17l2.53,1.84Z" transform="translate(0 0)"/><path class="cls-26" d="M385.59,210c.63.49.67,2.27.76,3a32.64,32.64,0,0,1,.2,4.53c-.07,2.35-.13,6-2,7.75a2.18,2.18,0,0,1-.66.46c-1.22.57-10,1.15-11.19-9.11-1.6.09-1.83-6.35.77-3.11a15.42,15.42,0,0,0,.36,2.53c.42,1.75,1.14,1.27,1.11.31,0-1.19-.39-3.07.11-4.17.45.24,1.24.48,1.48-.21a1.47,1.47,0,0,0,1.49.87,1.51,1.51,0,0,0,.83-.38,1.39,1.39,0,0,0,.44-.79,1.11,1.11,0,0,0,.39.49,1.12,1.12,0,0,0,.59.17,1.89,1.89,0,0,0,1.15-.33,1.92,1.92,0,0,0,.72-.94,1.19,1.19,0,0,0,.6.53,1.22,1.22,0,0,0,.8,0,1.14,1.14,0,0,0,.62-.5,1.18,1.18,0,0,0,.16-.78.84.84,0,0,0,.28.5.61.61,0,0,0,.42,0,.55.55,0,0,0,.32-.26A2.11,2.11,0,0,0,385.59,210Z" transform="translate(0 0)"/><path class="cls-35" d="M384.75,254.34a3.08,3.08,0,0,1,2.86,1.92,3.1,3.1,0,0,1-2.26,4.22,3.13,3.13,0,0,1-1.79-.17,3.18,3.18,0,0,1-1.39-1.15,3.1,3.1,0,0,1,2.58-4.82Zm0-1.51a4.59,4.59,0,0,0-2.56.78,4.54,4.54,0,0,0-1.7,2.07,4.61,4.61,0,1,0,8.87,1.76,4.61,4.61,0,0,0-4.61-4.61Z" transform="translate(0 0)"/><path class="cls-35" d="M393.59,250.54h-9.73v12.78h9.73Z" transform="translate(0 0)"/><path class="cls-26" d="M399.57,260.17c-.73-.84-7.36-4.14-8.35-4.47s-6-.36-6.05.18c-.17,1.15,5.28,1,6,1.32s-7-.19-7,.91,7.32.59,7.08,1.06c-.11.22-6.06.15-6.1,1.15s5.8.3,5.83.95c0,.33-4.9,0-4.93.94,0,.39,2.54.74,5.45,1,3.89.36,3,1.87,8.43.59C400.83,263.62,400.31,261,399.57,260.17Z" transform="translate(0 0)"/><path class="cls-36" d="M379.12,250.85a6.76,6.76,0,1,0-8.11,5.06A6.76,6.76,0,0,0,379.12,250.85Z" transform="translate(0 0)"/><path class="cls-37" d="M365.85,243.94c.27-.36,1.41.23,1.79,0s.52-1.66,1.3-1.86c1-.25,1.1.87,1.68.9.84.06,2.46-1.14,3.24-.86.44.17.67,1.29,1.07,1.53s1.33-.53,2.08.32c.28.33-.41,1.39-.14,1.71.43.5,1.7.25,2.12.76.7.87-.91,2.39-.72,3.49.15.81,1.79,1.95,1.42,2.86s-1.41.82-1.77,1.08c-.52.36-.1,2.06-.6,2.45s-1.52-.29-1.93,0-.29,1-.59,1.12c-1.16.49-3.78-.79-4.83-1.49a7.93,7.93,0,0,1-2.2-2.58,20,20,0,0,1-.42-3.45C367.07,248.38,364.91,245.15,365.85,243.94Z" transform="translate(0 0)"/><path class="cls-38" d="M378.11,251.85a6.75,6.75,0,1,0-8.1,5.07A6.76,6.76,0,0,0,378.11,251.85Z" transform="translate(0 0)"/><path class="cls-26" d="M358.46,253.29c5.32-2.86,9.7-4,11.08-3.94s3.8.2,4.68,1.08-5.55.16-5.54.89,5.95.13,5.95,1.23-5.9-.06-5.95.95,5.29.06,5.36,1-5.36.35-5.36.85c0,.92,4.52.45,4.28,1.57-.13.59-2.24.12-5,.1-1.16,0-9.5,2.69-9.5-.24Z" transform="translate(0 0)"/><path class="cls-35" d="M279.72,275h-8.51v60.85h8.51Z" transform="translate(0 0)"/><path class="cls-35" d="M300.08,275h-8.52v60.85h8.52Z" transform="translate(0 0)"/><path class="cls-35" d="M432.87,275h-8.52v61.1h8.52Z" transform="translate(0 0)"/><path class="cls-35" d="M414.9,275h-8.51v61.1h8.51Z" transform="translate(0 0)"/><path class="cls-39" d="M454.48,263.31H239.85v17.57H454.48Z" transform="translate(0 0)"/><path class="cls-40" d="M286.69,259.64c-1.44-.64-10.6-1.09-17.14-1.55-3.1-.22-4.22,5.22,1.9,5.22h16.17C289.89,263.31,288.68,260.51,286.69,259.64Z" transform="translate(0 0)"/><path class="cls-41" d="M287.1,259.84c1.93-.41,5.37-1.2,6.5-1,.61.13,6.43,4.43,4.89,4.43H285.76C283.58,263.31,286,260.08,287.1,259.84Z" transform="translate(0 0)"/><path class="cls-42" d="M289.36,263.37a.17.17,0,0,1-.1,0l-.1-.05a.24.24,0,0,1-.06-.08.43.43,0,0,1,0-.11.3.3,0,0,1,0-.1s0-.06.06-.09l.1-.05h.1a4.42,4.42,0,0,0,1.9-.41,4,4,0,0,1,1-.32,4.44,4.44,0,0,1,1,0,2.11,2.11,0,0,0,.83,0,.61.61,0,0,0-.07-.24c-.23-.49-1.44-.72-2.33-.89s-1.63-.31-1.65-.76a.26.26,0,0,1,.05-.19.22.22,0,0,1,.17-.09.24.24,0,0,1,.18.05.23.23,0,0,1,.1.16,4.53,4.53,0,0,0,1.25.33c1.1.21,2.36.45,2.69,1.18a.79.79,0,0,1,.1.37.67.67,0,0,1-.08.37c-.23.32-.72.27-1.29.22a4.52,4.52,0,0,0-.9,0,4.08,4.08,0,0,0-.9.28,4.71,4.71,0,0,1-2.09.45Z" transform="translate(0 0)"/><path class="cls-43" d="M340.82,320.58,316.2,289s-5.84,12.7-5,15.23S339,325.47,339,325.47Z" transform="translate(0 0)"/><path class="cls-44" d="M257.16,284.94c6.32-2.86,9.35-3.18,14.63-7.71.08-.08,35.61,1.62,41.71,5.51,5.17,3.3,16.32,35.74,22.33,45.4.81,1.31-3.73,3.56-4.38,2.87-4.89-5.13-26.2-22.83-27.34-35C303.77,292.35,255.26,298.3,257.16,284.94Z" transform="translate(0 0)"/><path class="cls-40" d="M256.51,288c-8-10.92-16.12-45.89-16.12-45.89s22.9,10.65,27.71,17.24c5.3,7.25,9.84,14.57,9.84,18.5C274.29,283.75,264.22,287.61,256.51,288Z" transform="translate(0 0)"/><path class="cls-41" d="M259.76,212.31c4.65,5.57,5.84,14.91,2.74,16.7-6.05,3.49-12.32-2.47-12.32-2.47s-3.14-10.24-3.34-12.22S258.12,210.34,259.76,212.31Z" transform="translate(0 0)"/><path class="cls-41" d="M255.8,224.16a30,30,0,0,0,4.92,16.7c1.47,2.44-14-2.24-12.72-5.11.78-1.74-2.48-14.32-2.48-14.32Z" transform="translate(0 0)"/><path class="cls-45" d="M263.67,212.26a2.34,2.34,0,0,1,.19.83,2.2,2.2,0,0,1-.16.84,2,2,0,0,1-.47.72,2.15,2.15,0,0,1-.71.47c-1.45.48-2.1,2.57-4.48,3.44a3,3,0,0,1-2.59-.18c-.56-.32-.7-.95-1.48-.72-1.16.33-1.18,1.94-.67,2.83,1,1.78,3.77,1.14,2.77,5.55-.87,3.81-3.9,2.62-5,3.3-.9.58-.72,2.3-1.76,2.55-.51.12-1.25-.4-2-2.08-1-2.18-4.64-1.65-6.15-3.52-2.11-2.6,0-5.39.1-7.14.07-1-2.18-4.12-1.15-5.74,1.56-2.49,3.22-1.26,4.12-2.51.78-1.1,1.28-3.7,3.37-4.24,3.18-.81,3.84.46,5.55.71,1.1.15,3.58-1,5.14-.26.74.34.79,2.28,1.42,2.79C261,210.92,262.45,209.1,263.67,212.26Z" transform="translate(0 0)"/><path class="cls-46" d="M335.83,328.14c6.43-1.27,11.84-4.72,13-3.4S338.88,335,335.1,336c-1.78.48-3.65-5-3.65-5S335.16,329.85,335.83,328.14Z" transform="translate(0 0)"/><path class="cls-46" d="M355,313.08c-3.13-1.36-13.51,7.18-14.14,7.5s-1.71,3-1.82,4.28,1.26,4.39,1.93,4.29S355,313.08,355,313.08Z" transform="translate(0 0)"/><path class="cls-47" d="M355,313.08c1.17,1.5-12.43,17-14,16.07S354.21,312.11,355,313.08Z" transform="translate(0 0)"/><path class="cls-48" d="M277.43,275.14s-9.23,4.48-10.4.61-4-12.08-4-12.08l13.44,8.93Z" transform="translate(0 0)"/><path class="cls-40" d="M259.32,237.9c2.89.45,4.7,1,6.66,2.82,5,4.61,5.36,18.86,8.43,20,1.72.63,13.32-11,16.71-11.67,1.08-.22,3.48,4,2.54,6.34-3,7.58-16.78,21.07-21.6,19.66-5.67-1.66-10-14.68-14.95-22.51-2.3-3.64-7.53-11.52-6.92-14.14S257.28,238.33,259.32,237.9Z" transform="translate(0 0)"/><path class="cls-33" d="M275.4,296.39h-5v39.44h5Z" transform="translate(0 0)"/><path class="cls-33" d="M255,335.83a5,5,0,0,1,5-5h25.72a5,5,0,0,1,5,5Z" transform="translate(0 0)"/><path class="cls-33" d="M277.69,301.18H268.1l-3.09-4.8h15.77Z" transform="translate(0 0)"/><path class="cls-32" d="M235.58,241.88l18.52,51.59,14.55-.92-10-51.67a6.84,6.84,0,0,0-6.69-5.51H240.16a4.88,4.88,0,0,0-4,2.07,4.88,4.88,0,0,0-.6,4.44Z" transform="translate(0 0)"/><path class="cls-32" d="M293.66,296.49H257a3,3,0,0,1-2.14-5.16,3,3,0,0,1,2.14-.89h36.64a3,3,0,0,1,2.14,5.17,3.06,3.06,0,0,1-2.14.88Z" transform="translate(0 0)"/><path class="cls-49" d="M300.24,239.85h-4.73a1.92,1.92,0,0,0-1.92,1.92v8.79a1.92,1.92,0,0,0,1.92,1.92h4.73a1.92,1.92,0,0,0,1.92-1.92v-8.79A1.92,1.92,0,0,0,300.24,239.85Z" transform="translate(0 0)"/><path class="cls-41" d="M291,249.12c1.4-2,1-2.69,1.76-3.65s5.8-3.36,7-2.48c.85.64,1.56,5.26.49,7.35-.69,1.33-6.13,3-6.73,3S290.23,250.24,291,249.12Z" transform="translate(0 0)"/><path class="cls-50" d="M299.3,243.09a1,1,0,0,0-2,0v.76a1,1,0,0,0,2,0Z" transform="translate(0 0)"/><path class="cls-51" d="M524.43,322.3c4-1.7,6.08-4.42,6.51-6.08,1.41-5.32-1.72-7.15-2.6-9.64-1.3-3.69,4.82-7,5.1-11.75.41-6.74-9.56-9.68-9.86-11.84-.62-4.4,4.68-5.36,4.76-9,.12-5.7-5.88-4.56-7.7-8.43-1.26-2.69-.12-8.8-5.7-9.95-3.09-.63-5.3,2.32-5.87,4.89-.68,3,1.13,5.09.11,7.6-1.11,2.71-7,5.08-6.72,11.63s5.45,9.08,4.79,13.31c-.41,2.62-2.75,3.2-3.51,6-1,3.72,1.95,5.57,1.27,8.16-.81,3.05-5.06,3-5.06,9.45,0,3.28,4.15,6.64,9.63,5.68C517.54,324.49,523.48,322.71,524.43,322.3Z" transform="translate(0 0)"/><path class="cls-52" d="M525.94,316a11.47,11.47,0,0,0-1.39-2.13,8.3,8.3,0,0,1,0-9.09,21.63,21.63,0,0,0,2-2.83c2.24-4.82-4.05-9.71-2.68-14.67.64-2.32,2.91-4.31,2.39-6.65-.33-1.43-1.62-2.42-2.39-3.67-2.71-4.46,1.55-10.31.43-13.54a2.46,2.46,0,0,0-.81-1.17,2.31,2.31,0,0,0-1.34-.49c-1.65.08-2.27,2.23-2.14,3.88s.5,3.56-.66,4.74c-.83.84-2.12.95-3.23,1.36a6,6,0,0,0-1.94,1.35,5.85,5.85,0,0,0-1.28,2,6.14,6.14,0,0,0-.39,2.33,5.89,5.89,0,0,0,.56,2.3c.73,1.4,2,2.44,2.93,3.72s1.47,3.1.57,4.4c-.75,1.09-2.33,1.55-2.7,2.82a2.33,2.33,0,0,0,.2,1.66c.63,1.32,2,2.1,3.09,3.05s2.09,2.41,1.6,3.78c-.36,1-1.35,1.56-2,2.33a4.8,4.8,0,0,0,.06,6.33c.58.61,1.31,1.06,1.85,1.69a2.17,2.17,0,0,1,.57,1.09,2,2,0,0,1-.16,1.22c-4.1,2.77-6.39,3.68-4.38,7.08a9.91,9.91,0,0,0,3.75,3.85C522.52,324.89,527.76,320.57,525.94,316Z" transform="translate(0 0)"/><path class="cls-53" d="M524.83,322.7l-.5.94s-.34,9.84-2.81,9.84h-9c-2.44,0-2.81-9.72-2.81-9.72l-.5-1.06a.38.38,0,0,1,.12-.28.36.36,0,0,1,.28-.12h14.85l.15,0a.38.38,0,0,1,.13.09.3.3,0,0,1,.09.13.4.4,0,0,1,0,.15Z" transform="translate(0 0)"/><path class="cls-54" d="M520.36,322.7l-.5.94s-.33,9.84-2.81,9.84h-4.56c-2.44,0-2.81-9.72-2.81-9.72l-.5-1.06a.38.38,0,0,1,.12-.28.36.36,0,0,1,.28-.12H520l.15,0a.44.44,0,0,1,.22.22.4.4,0,0,1,0,.15Z" transform="translate(0 0)"/><g class="cls-3"><path class="cls-55" d="M287.83,139.15h-20.6v28.78h20.6Z" transform="translate(0 0)"/><path class="cls-56" d="M293.22,133.7v39.68H261.84V133.7Zm1.7-1.7H260.14v43.07h34.78V132Z" transform="translate(0 0)"/></g><g class="cls-3"><path class="cls-57" d="M85.09,139.15H64.5v28.78H85.09Z" transform="translate(0 0)"/><path class="cls-56" d="M90.48,133.7v39.68H59.11V133.7Zm1.7-1.7H57.41v43.07H92.18V132Z" transform="translate(0 0)"/></g><g class="cls-3"><path class="cls-58" d="M372.63,139.15H352v28.78h20.6Z" transform="translate(0 0)"/><path class="cls-56" d="M378,133.7v39.68H346.64V133.7Zm1.7-1.7H345v43.07h34.77V132Z" transform="translate(0 0)"/></g><g class="cls-3"><path class="cls-59" d="M81.61,109.86a6.41,6.41,0,1,0-7.36,5.3A6.41,6.41,0,0,0,81.61,109.86Z" transform="translate(0 0)"/><g class="cls-3"><path class="cls-5" d="M94.84,122.79H55.72a.74.74,0,0,1-.36-.09.87.87,0,0,1-.27-.27.76.76,0,0,1,0-.72L74.65,87.83a.74.74,0,0,1,.63-.34.82.82,0,0,1,.35.09.84.84,0,0,1,.28.25l19.56,33.88a.76.76,0,0,1,0,.72.87.87,0,0,1-.27.27.74.74,0,0,1-.36.09ZM57,121.35H93.59L75.28,89.64Z" transform="translate(0 0)"/></g><g class="cls-3"><path class="cls-5" d="M82,122.79a.7.7,0,0,1-.46-.16.7.7,0,0,1-.25-.42l-6-30.29-6,30.29a.71.71,0,0,1-.31.46.69.69,0,0,1-.54.11.71.71,0,0,1-.46-.31.69.69,0,0,1-.11-.54l6.7-33.88a.73.73,0,0,1,.25-.42.76.76,0,0,1,.46-.16.78.78,0,0,1,.46.16.79.79,0,0,1,.25.42l6.7,33.88a.86.86,0,0,1,0,.32.92.92,0,0,1-.14.28.76.76,0,0,1-.25.19.7.7,0,0,1-.31.07Z" transform="translate(0 0)"/></g><g class="cls-3"><path class="cls-5" d="M76.15,28.3H74.41v62h1.74Z" transform="translate(0 0)"/></g></g><g class="cls-3"><path class="cls-59" d="M308.49,109.86a6.41,6.41,0,1,0-7.36,5.3A6.41,6.41,0,0,0,308.49,109.86Z" transform="translate(0 0)"/><g class="cls-3"><path class="cls-5" d="M321.72,122.79H282.6a.74.74,0,0,1-.36-.09.87.87,0,0,1-.27-.27.76.76,0,0,1,0-.72l19.56-33.88a.84.84,0,0,1,.28-.25.73.73,0,0,1,.35-.09.74.74,0,0,1,.36.09.81.81,0,0,1,.27.25l19.56,33.88a.7.7,0,0,1,0,.72.87.87,0,0,1-.27.27.74.74,0,0,1-.36.09Zm-37.87-1.44h36.62L302.16,89.64Z" transform="translate(0 0)"/></g><g class="cls-3"><path class="cls-5" d="M308.86,122.79a.7.7,0,0,1-.46-.16.7.7,0,0,1-.25-.42l-6-30.29-6,30.29a.71.71,0,0,1-.31.46.69.69,0,0,1-.54.11.71.71,0,0,1-.46-.31.69.69,0,0,1-.11-.54l6.7-33.88a.73.73,0,0,1,.25-.42.74.74,0,0,1,.92,0,.79.79,0,0,1,.25.42l6.7,33.88a.69.69,0,0,1,0,.32.92.92,0,0,1-.14.28.76.76,0,0,1-.25.19.7.7,0,0,1-.31.07Z" transform="translate(0 0)"/></g><g class="cls-3"><path class="cls-5" d="M303,28.3h-1.74v62H303Z" transform="translate(0 0)"/></g></g><path class="cls-60" d="M63.2,263a3.1,3.1,0,0,0-1.68.84,3,3,0,0,0-.9,1.65c-1.72,9.16-7.28,44.26,9.14,44.26,18.89,0,41.42-6.22,41.42-6.22l-36.92-40a4.9,4.9,0,0,0-2-1.32,5.06,5.06,0,0,0-2.38-.22Z" transform="translate(0 0)"/><path class="cls-61" d="M102.71,268.7c-1.08,1-5.64,6.6-6.77,5.91-1-.59-4.75-17.23-6.17-17.82-2.49-1-4.54,9.13-4.91,12.09-.33,2.65,1.62,15.67,7.84,18.26,3.08,1.28,12.29-6.07,12.62-14.17C105.34,272.39,103.08,268.35,102.71,268.7Z" transform="translate(0 0)"/><path class="cls-25" d="M127.53,328.3A6.21,6.21,0,0,0,128.7,333c.45.32,13.09-.35,13.42-2.73s-11.53-3.7-11.53-3.7Z" transform="translate(0 0)"/><path class="cls-25" d="M138.35,323.75a6.12,6.12,0,0,0,.31,2.47,6.29,6.29,0,0,0,1.25,2.15c.48.28,13-1.46,13.15-3.85s-11.81-2.72-11.81-2.72Z" transform="translate(0 0)"/><path class="cls-62" d="M142.51,322.27c-.84-1.23-1.8-2.84-2.81-4.67a35.27,35.27,0,0,1-4.1,3.1q1.54,1.65,2.94,3.31C139.38,325,143.07,323.09,142.51,322.27Z" transform="translate(0 0)"/><path class="cls-62" d="M130.09,323.48c-.46.21-3.13,1.49-4.59,2.07.85,1.1,1.64,2.17,2.34,3.18s4.32-.73,3.88-1.62S130.67,324.86,130.09,323.48Z" transform="translate(0 0)"/><path class="cls-63" d="M130.35,323.23c-3.85-7.83-8.27-23.75-11.39-28a1.7,1.7,0,0,0-.52-.61,2.58,2.58,0,0,0-1.29-.74c-8.36-3.8-41.73-6.67-42.35-6.79,0,.18.36,10,2.55,14.05,4,7.46,31.46.54,33.84,2.32a.78.78,0,0,0,.18.11c.25,7.31,8.71,14.88,13.78,22.25C125.9,327,130.78,324.11,130.35,323.23Z" transform="translate(0 0)"/><path class="cls-64" d="M140.72,318.27c-5.56-8-12.17-25.71-17-27.57-8.58-4.56-34.43-4.43-35.12-4.56,0,.18-5.78,9.24-5.91,9.28,8.07,1.3,31.46.54,33.83,2.32a2,2,0,0,0,1,.22,2,2,0,0,0,1-.3c0,.3,0,.59,0,.89.81,8.73,9.53,13.9,16.91,22.8C136.28,322.36,141.28,319.08,140.72,318.27Z" transform="translate(0 0)"/><path class="cls-61" d="M92.7,286.18c3,.17.42-5.1-.18-10.92-.74-7.27-1-15.75-2.75-18.47-1.88-3-8.41-5.48-11.16-5.45-4,0-9,4.32-10.36,6.28-6.6,9.37,6.55,42.88,8.49,42.16C81,299.58,89.47,288.68,92.7,286.18Z" transform="translate(0 0)"/><path class="cls-11" d="M90.61,233.54c-.84,3.62-9.76,14.68-14.24,10.89C74,244.2,72,232.78,74.78,230.15,78.69,226.43,91.43,230,90.61,233.54Z" transform="translate(0 0)"/><path class="cls-62" d="M88.59,234.44c-2.3,2.12-2.86,1-3.86,2.16-.19.23.25,2.88-1,3.23-.7.19-.27-3.19-.82-3.58-1.82-1.27-1.72,1.88-1,3.08,1.05,1.82-3.26,5.31-5.48,5.1a87.86,87.86,0,0,1-2.28,8.7c-.82,2.1,9.43,3.24,8.75,1.31a26,26,0,0,1-.74-6.52,8.67,8.67,0,0,0,4.74,1C88.77,248.54,91.3,241.2,88.59,234.44Z" transform="translate(0 0)"/><path class="cls-65" d="M72.73,292.59s15-3.35,18.24-4.83l1.73-1.58-20.86,4.37Z" transform="translate(0 0)"/><path class="cls-65" d="M74.16,267.59S71.93,282.15,80.51,282c-1,1.28-6.77,2.05-6.77,2.05S69,285,69.87,278C69.87,278,70.92,269.14,74.16,267.59Z" transform="translate(0 0)"/><path class="cls-61" d="M71.27,258c5.47,4.67,1.3,23.43,2.79,24.2,1.81.93,6-1.42,17.6-.48,1.06.08,1.69,4.15.64,4.74-6,3.38-17.9,6.9-23.59,3.71s-4.57-21.31-2.91-27.5C67,258.3,69.37,256.33,71.27,258Z" transform="translate(0 0)"/><path class="cls-62" d="M103,273.81a5,5,0,0,1-1-1.92c-.37-1-1.2-.93-1.2-2.26,0-.86,1.85-2.83,2.61-3.2s1.94-.33,2.12.32c.07.24-.88,1.59-.86,2.69,0,1.86,3.36-.61,2.2,2.45a3.05,3.05,0,0,1-.58,1,3.22,3.22,0,0,1-1,.73,2.9,2.9,0,0,1-1.15.31,3,3,0,0,1-1.19-.16Z" transform="translate(0 0)"/><path class="cls-62" d="M101.44,282.55c.45.51-2.29,3.42-3.47,3.66-1.68.33-4.64-.75-5.32-2a2.4,2.4,0,0,1,1-2.64c.9-.62,2.26-.77,3.24-1.38.52-.33.88-.9,1-.95.46-.14.83,1.42-.93,2.16-1.06.45.8,1.19,2,1.32A10.13,10.13,0,0,0,101.44,282.55Z" transform="translate(0 0)"/><path class="cls-66" d="M107.35,262.62h-3.26a1.57,1.57,0,0,0-1.57,1.58v6.29a1.57,1.57,0,0,0,1.57,1.57h3.26a1.57,1.57,0,0,0,1.58-1.57V264.2A1.58,1.58,0,0,0,107.35,262.62Z" transform="translate(0 0)"/><path class="cls-62" d="M93.15,282c-.43.21-1.44.31-1.51.48s-.12,2.19.54,2.89,2-.53,2-.53Z" transform="translate(0 0)"/><path class="cls-67" d="M94.12,286.46l21.9,1,.06-1.29-21.91-1Z" transform="translate(0 0)"/><path class="cls-67" d="M127.14,267.25l-11.07,18.92,1.11.66,11.08-18.93Z" transform="translate(0 0)"/><path class="cls-68" d="M115.57,286.53a.8.8,0,0,0,.14.39.73.73,0,0,0,.33.24.71.71,0,0,0,.41,0,.76.76,0,0,0,.36-.2.73.73,0,0,0,.13-.78.65.65,0,0,0-.26-.31.69.69,0,0,0-.39-.12.75.75,0,0,0-.72.75Z" transform="translate(0 0)"/><path class="cls-46" d="M115.93,286.53a.4.4,0,0,0,.07.19.3.3,0,0,0,.17.12.34.34,0,0,0,.2,0,.37.37,0,0,0,.17-.1.46.46,0,0,0,.1-.18.39.39,0,0,0,0-.21.37.37,0,0,0-.13-.15.33.33,0,0,0-.19-.06.33.33,0,0,0-.25.11.36.36,0,0,0-.11.26Z" transform="translate(0 0)"/><path class="cls-69" d="M408.55,237.54H386.49a6.36,6.36,0,0,0-6.36,6.36v11.86a6.36,6.36,0,0,0,6.36,6.36h22.06a6.36,6.36,0,0,0,6.36-6.36V243.9A6.36,6.36,0,0,0,408.55,237.54Z" transform="translate(0 0)"/><path class="cls-70" d="M414.33,263.28H380.71a.57.57,0,0,1-.41-.17.58.58,0,0,1-.17-.41h0a.58.58,0,0,1,.17-.41.57.57,0,0,1,.41-.17h33.62a.58.58,0,0,1,.58.58h0a.78.78,0,0,1,0,.22.5.5,0,0,1-.13.19.47.47,0,0,1-.19.12.54.54,0,0,1-.22,0Z" transform="translate(0 0)"/><path class="cls-71" d="M409.33,262.66a.33.33,0,0,1,0,.13.35.35,0,0,1-.11.1.38.38,0,0,1-.15,0,.19.19,0,0,1-.12-.07.21.21,0,0,1-.07-.13.23.23,0,0,1,0-.14.31.31,0,0,1,.09-.11.23.23,0,0,1,.14,0,.24.24,0,0,1,.25.25Z" transform="translate(0 0)"/><path class="cls-71" d="M408.24,262.41h-2v.49h2Z" transform="translate(0 0)"/><path class="cls-5" d="M293.65,201.82a15.71,15.71,0,1,1-4.6-11.11,15.74,15.74,0,0,1,4.6,11.11Z" transform="translate(0 0)"/><path class="cls-46" d="M276.32,196v8.74a3.28,3.28,0,0,1-.18,1.24,3,3,0,0,1-.65,1.06,3.13,3.13,0,0,1-1.07.67,3.25,3.25,0,0,1-1.24.18,3.44,3.44,0,0,1-1.35-.21,3.15,3.15,0,0,1-1.16-.74,3.63,3.63,0,0,1-.72-1.23,3.54,3.54,0,0,1-.19-1.41h1.52a2.56,2.56,0,0,0,.45,1.61,1.7,1.7,0,0,0,.62.47,1.64,1.64,0,0,0,.76.12,1.57,1.57,0,0,0,.71-.1,1.55,1.55,0,0,0,.58-.4,2,2,0,0,0,.4-1.25V196Z" transform="translate(0 0)"/><path class="cls-46" d="M285.72,206.22a3,3,0,0,1-1.22,1.17,4,4,0,0,1-2,.45,4.81,4.81,0,0,1-2.08-.42,3.75,3.75,0,0,1-1.45-1.17,3.36,3.36,0,0,1-.63-1.7h1.62a2.36,2.36,0,0,0,1.18,1.77,2.69,2.69,0,0,0,1.31.31,2.07,2.07,0,0,0,.82-.12,1.89,1.89,0,0,0,.71-.42,1.76,1.76,0,0,0,.41-.63,1.68,1.68,0,0,0,.13-.74,1.72,1.72,0,0,0-.38-1.17,2.78,2.78,0,0,0-.92-.71,15.88,15.88,0,0,0-1.5-.56,14.51,14.51,0,0,1-1.8-.69,3,3,0,0,1-1.15-1,2.83,2.83,0,0,1-.48-1.72,3,3,0,0,1,.45-1.62,2.94,2.94,0,0,1,1.26-1.08,4.53,4.53,0,0,1,1.95-.38,4.15,4.15,0,0,1,2.76.84,3.23,3.23,0,0,1,1.18,2.14h-1.64a2.15,2.15,0,0,0-.71-1.23,2.55,2.55,0,0,0-3.06-.06,1.74,1.74,0,0,0-.43.61,2,2,0,0,0,.24,1.85,2.53,2.53,0,0,0,.89.66,15.26,15.26,0,0,0,1.47.55,14,14,0,0,1,1.83.7,3.19,3.19,0,0,1,1.18,1,3.06,3.06,0,0,1,.48,1.79,3.11,3.11,0,0,1-.4,1.55Z" transform="translate(0 0)"/><path class="cls-5" d="M339.58,188.74a21.31,21.31,0,1,1-21.3-20.81,21.07,21.07,0,0,1,21.3,20.81Z" transform="translate(0 0)"/><path class="cls-46" d="M312.91,196.22h0Zm17.41-13.45a6.16,6.16,0,0,0-1.43-2.79.4.4,0,0,1-.12-.23.37.37,0,0,1,0-.25,6.52,6.52,0,0,0-.21-4.27.44.44,0,0,0-.17-.16.52.52,0,0,0-.21-.07,7.82,7.82,0,0,0-1.79.38c-.85.39-1.69.82-2.5,1.29a.79.79,0,0,1-.3.12.74.74,0,0,1-.33,0,16.86,16.86,0,0,0-8.29,0,.65.65,0,0,1-.31,0,.74.74,0,0,1-.29-.12,9.73,9.73,0,0,0-3.44-1.59c-1.41-.26-1.19-.22-1.5.91a6.17,6.17,0,0,0,.05,3.56.41.41,0,0,1,0,.19.36.36,0,0,1-.07.17,7.39,7.39,0,0,0-1.65,5.82,9.92,9.92,0,0,0,.88,3.48,7.06,7.06,0,0,0,1.94,2.37,6.91,6.91,0,0,0,2.76,1.31c.8.22,1.62.35,2.45.53a4,4,0,0,0-1.05,2.19.44.44,0,0,1-.25.23,4.61,4.61,0,0,1-1.6.37l.36.35c-.12.09-.24.25-.36.25s-.25-.15-.38-.24l.37-.36a3.81,3.81,0,0,1-1.21-.13c.14.25.12.47-.15.46s-.32-.17-.49-.27l.27-.32a4.67,4.67,0,0,1-1.93-1.91,3.39,3.39,0,0,0-2.4-1.59,2.3,2.3,0,0,0-.74.06c-.27.07-.33.27-.15.49a2,2,0,0,0,.5.45,4.29,4.29,0,0,1,1.88,2.31,4.32,4.32,0,0,0,4.61,2.7c.52,0,1-.11,1.6-.18V199c0,.81,0,1.6,0,2.39,0,.64-.32,1-.84,1l0,.05h10.16l0-.12a1,1,0,0,1-.49-1c0-1.55,0-3.11,0-4.66a8.42,8.42,0,0,0-.11-1.33,4,4,0,0,0-1-2.05l1.2-.2a10.2,10.2,0,0,0,3.13-1,6.39,6.39,0,0,0,3.09-3.53A10.34,10.34,0,0,0,330.32,182.77Zm-22.55,10.37a1.39,1.39,0,0,1-.27-.21c.07-.05.16-.15.21-.14a1.69,1.69,0,0,1,.36.23C307.92,193.09,307.83,193.16,307.77,193.14Zm.94.73a1.27,1.27,0,0,1-.31-.3s.14-.19.16-.18a4.4,4.4,0,0,1,.45.3c-.16.1-.27.2-.3.18Zm.64,1a2.25,2.25,0,0,1-.36-.39s.16-.21.17-.21l.47.35a3.2,3.2,0,0,1-.27.25Zm1.2,1c-.09.05-.23.16-.27.14a2.16,2.16,0,0,1-.4-.4s.18-.23.21-.21a4.07,4.07,0,0,1,.48.33.59.59,0,0,1,0,.14Zm3.82,1-.35-.31c.13-.11.24-.27.38-.3s.24.13.36.21Z" transform="translate(0 0)"/><path class="cls-72" d="M318.29,188.75h0Z" transform="translate(0 0)"/><path class="cls-5" d="M57.83,220.72a17.07,17.07,0,1,1-5-12.08,17.06,17.06,0,0,1,5,12.08Z" transform="translate(0 0)"/><path class="cls-46" d="M40.75,210.14a10.59,10.59,0,1,0,10.57,10.58,10.45,10.45,0,0,0-.8-4.05A10.55,10.55,0,0,0,44.8,211,10.42,10.42,0,0,0,40.75,210.14Zm9.32,10.45c-.34-.1-.66-.21-1-.29a12.78,12.78,0,0,0-5-.39c-.31,0-.62.11-.92.15A.26.26,0,0,1,43,220l-.7-1.5a15.21,15.21,0,0,0,5.34-4.07,9.34,9.34,0,0,1,2.44,6.17Zm-3.37-7.06c-.52,1-3.58,3.37-5,3.84a46.37,46.37,0,0,0-3.57-5.62,9.4,9.4,0,0,1,8.57,1.78Zm-13.57,1.81a9.57,9.57,0,0,1,3.54-3c.2-.09.28-.06.41.11a47.64,47.64,0,0,1,3.31,5.2l.13.24a17.84,17.84,0,0,1-8.82.61,9.32,9.32,0,0,1,1.43-3.14Zm-1.65,4.37a19.22,19.22,0,0,0,9.63-.73l.69,1.45A16.18,16.18,0,0,0,33.85,227a9.29,9.29,0,0,1-2-3.38,9.48,9.48,0,0,1-.4-3.89Zm12.37,9.8a9.23,9.23,0,0,1-9-1.57.17.17,0,0,1-.06-.06s0,0,0-.06a14.41,14.41,0,0,1,7.51-6.26c.21.56.42,1.09.6,1.63A23.45,23.45,0,0,1,44.18,229c0,.49.1.39-.33.53ZM50,222.13a9.21,9.21,0,0,1-3,5.54,16.13,16.13,0,0,1-1.5,1.11,27.84,27.84,0,0,0-1.93-7.52,10.52,10.52,0,0,1,2.23-.2,13.18,13.18,0,0,1,4,.75c.17.07.22.15.19.32Z" transform="translate(0 0)"/><path class="cls-5" d="M102.46,203.64a17.72,17.72,0,1,1-5.19-12.52,17.69,17.69,0,0,1,5.19,12.52Z" transform="translate(0 0)"/><path class="cls-46" d="M90.12,199.49c-1.78,0-3.56,0-5.34,0H79.4c-.34,0-.46.1-.46.44,0,2.75,0,5.51,0,8.27a1.22,1.22,0,0,0,.08.5,1.26,1.26,0,0,0,.27.42,1.19,1.19,0,0,0,.42.28,1.16,1.16,0,0,0,.49.1,3,3,0,0,0,.6,0c.31,0,.39.11.39.4,0,.78,0,1.55,0,2.33a2.35,2.35,0,0,0,.09.64,1.2,1.2,0,0,0,.43.63,1.23,1.23,0,0,0,.74.24,1.22,1.22,0,0,0,.73-.25,1.18,1.18,0,0,0,.43-.64,3.29,3.29,0,0,0,.08-.63c0-.78,0-1.55,0-2.33,0-.3.1-.4.4-.39a10.27,10.27,0,0,0,1.11,0c.35,0,.49.09.47.46,0,.84,0,1.69,0,2.54a1.43,1.43,0,0,0,.09.5,1.28,1.28,0,0,0,.29.41,1.12,1.12,0,0,0,.43.27,1.4,1.4,0,0,0,.5.06,1.09,1.09,0,0,0,.46-.1,1.1,1.1,0,0,0,.38-.27,1.3,1.3,0,0,0,.24-.41,1.24,1.24,0,0,0,0-.47c0-.63,0-1.26,0-1.89,0-1.08,0-1.08,1-1.09a1.49,1.49,0,0,0,.56-.08,1.28,1.28,0,0,0,.48-.31,1.37,1.37,0,0,0,.31-.48,1.52,1.52,0,0,0,.08-.56c0-2.7,0-5.4,0-8.1C90.62,199.59,90.49,199.49,90.12,199.49Zm-2.77-5.31a5.63,5.63,0,0,0-2.44-.63,5.71,5.71,0,0,0-2.48.5,1.4,1.4,0,0,1-.41,0,2.73,2.73,0,0,1-.38.38A5.74,5.74,0,0,0,80,196.12a5.66,5.66,0,0,0-.9,2.17c-.11.52-.11.53.43.53H90c.08,0,.19,0,.25,0s.24-.2.23-.29a5.83,5.83,0,0,0-1-2.56,5.74,5.74,0,0,0-2.11-1.77ZM82,197a.57.57,0,0,1-.26,0,.71.71,0,0,1-.22-.15.55.55,0,0,1-.14-.23.57.57,0,0,1,0-.26.69.69,0,0,1,0-.25.64.64,0,0,1,.14-.22.6.6,0,0,1,.21-.14.74.74,0,0,1,.25,0,.67.67,0,0,1,.47,1.14.65.65,0,0,1-.45.2Zm5.45,0a.68.68,0,0,1-.48-.21.7.7,0,0,1-.2-.48.75.75,0,0,1,0-.26.86.86,0,0,1,.15-.22.68.68,0,0,1,.23-.14.75.75,0,0,1,.26,0,.72.72,0,0,1,.46.2.64.64,0,0,1,0,.93.68.68,0,0,1-.48.22Zm6.38,3.64a1.31,1.31,0,0,0-.12-.56,1.22,1.22,0,0,0-.36-.45,1.11,1.11,0,0,0-.52-.23,1.1,1.1,0,0,0-.57,0,1.36,1.36,0,0,0-.73.58,1.32,1.32,0,0,0-.19.91c0,1.75,0,3.5.07,5.24a1.35,1.35,0,0,0,.06.49,1.2,1.2,0,0,0,.25.42,1.24,1.24,0,0,0,.39.29,1.18,1.18,0,0,0,.48.1,1.34,1.34,0,0,0,.49-.1,1.22,1.22,0,0,0,.41-.29,1.21,1.21,0,0,0,.27-.43,1.15,1.15,0,0,0,.07-.49c0-.9,0-1.81,0-2.71s0-1.87,0-2.8Zm-15.66.07a1.4,1.4,0,0,0-.06-.5,1.48,1.48,0,0,0-.25-.44,1.36,1.36,0,0,0-.41-.3,1.31,1.31,0,0,0-.48-.12,1.2,1.2,0,0,0-.5.13,1.14,1.14,0,0,0-.41.31,1.31,1.31,0,0,0-.26.44,1.26,1.26,0,0,0-.06.51c0,.87,0,1.75,0,2.62s0,1.81,0,2.72a1.54,1.54,0,0,0,.06.52A1.43,1.43,0,0,0,76,207a1.28,1.28,0,0,0,.43.3,1.12,1.12,0,0,0,.51.11,1.28,1.28,0,0,0,.94-.46,1.42,1.42,0,0,0,.25-.47,1.24,1.24,0,0,0,0-.54c0-1.76,0-3.52-.06-5.28Z" transform="translate(0 0)"/><path class="cls-46" d="M84.78,199.49h5.34c.37,0,.5.1.49.48,0,2.7,0,5.4,0,8.1a1.58,1.58,0,0,1-.08.57,1.25,1.25,0,0,1-.31.47,1.28,1.28,0,0,1-.48.31,1.34,1.34,0,0,1-.56.08c-1.05,0-1.05,0-1.05,1.09,0,.63,0,1.27,0,1.9a1.07,1.07,0,0,1,0,.47,1.14,1.14,0,0,1-.24.41,1.26,1.26,0,0,1-.38.27,1.09,1.09,0,0,1-.46.1,1.21,1.21,0,0,1-.5-.07,1.06,1.06,0,0,1-.43-.26,1.22,1.22,0,0,1-.29-.42,1.15,1.15,0,0,1-.08-.49c0-.85,0-1.7,0-2.54,0-.37-.13-.48-.48-.46a10.46,10.46,0,0,1-1.12,0c-.29,0-.4.08-.39.39,0,.77,0,1.55,0,2.33a3.29,3.29,0,0,1-.08.63,1.26,1.26,0,0,1-.44.64,1.19,1.19,0,0,1-.73.25,1.27,1.27,0,0,1-.73-.24,1.26,1.26,0,0,1-.44-.64,2.72,2.72,0,0,1-.08-.63c0-.78,0-1.55,0-2.33,0-.29-.08-.43-.39-.4h-.6a1.16,1.16,0,0,1-.49-.1,1.19,1.19,0,0,1-.42-.28,1.26,1.26,0,0,1-.27-.42,1.43,1.43,0,0,1-.09-.5q0-4.14,0-8.27c0-.35.12-.45.46-.45C81.19,199.5,83,199.49,84.78,199.49Z" transform="translate(0 0)"/><path class="cls-46" d="M87.35,194.18a5.62,5.62,0,0,0-4.91-.13,1.51,1.51,0,0,1-.42,0,2.28,2.28,0,0,1-.38.38A5.74,5.74,0,0,0,80,196.12a5.82,5.82,0,0,0-.9,2.17c-.11.52-.1.53.44.53H90c.08,0,.19,0,.25,0s.24-.2.23-.29a5.83,5.83,0,0,0-1-2.56,5.74,5.74,0,0,0-2.11-1.77ZM82,197a.57.57,0,0,1-.26,0,.71.71,0,0,1-.22-.15.68.68,0,0,1-.14-.23.57.57,0,0,1,0-.26.69.69,0,0,1,0-.25.64.64,0,0,1,.14-.22.6.6,0,0,1,.21-.14.74.74,0,0,1,.25,0,.7.7,0,0,1,.46.2.66.66,0,0,1,0,.93A.64.64,0,0,1,82,197Zm5.46,0a.69.69,0,0,1-.49-.21.7.7,0,0,1-.2-.48.58.58,0,0,1,0-.26.64.64,0,0,1,.14-.22.79.79,0,0,1,.23-.14.84.84,0,0,1,.27,0,.69.69,0,0,1,.45.2.7.7,0,0,1,.21.45.75.75,0,0,1-.19.49.71.71,0,0,1-.48.21Z" transform="translate(0 0)"/><path class="cls-46" d="M93.79,203.41v2.71a1.21,1.21,0,0,1-.07.5,1.26,1.26,0,0,1-.27.42,1.28,1.28,0,0,1-.4.29,1.19,1.19,0,0,1-.49.1,1.12,1.12,0,0,1-.48-.1,1.14,1.14,0,0,1-.4-.29,1.12,1.12,0,0,1-.25-.42,1.32,1.32,0,0,1-.06-.49c0-1.74-.06-3.5-.08-5.24a1.38,1.38,0,0,1,.2-.91,1.22,1.22,0,0,1,1.3-.61,1.36,1.36,0,0,1,.52.23,1.2,1.2,0,0,1,.36.45,1.11,1.11,0,0,1,.12.56C93.81,201.54,93.79,202.48,93.79,203.41Z" transform="translate(0 0)"/><path class="cls-46" d="M75.69,203.34v-2.63a1.35,1.35,0,0,1,.32-1,1.35,1.35,0,0,1,.41-.31,1.48,1.48,0,0,1,.5-.13,1.36,1.36,0,0,1,.49.12,1.31,1.31,0,0,1,.4.3,1.14,1.14,0,0,1,.25.44,1.06,1.06,0,0,1,.06.5c0,1.76.06,3.52.07,5.29a1.21,1.21,0,0,1,0,.53,1.42,1.42,0,0,1-.25.47,1.34,1.34,0,0,1-.94.47,1.3,1.3,0,0,1-.51-.11A1.18,1.18,0,0,1,76,207a1.29,1.29,0,0,1-.27-.45,1.54,1.54,0,0,1-.06-.52C75.68,205.14,75.69,204.24,75.69,203.34Z" transform="translate(0 0)"/><path class="cls-5" d="M370.86,201.82a13.88,13.88,0,1,1-1.06-5.31,14,14,0,0,1,1.06,5.31Z" transform="translate(0 0)"/><path class="cls-46" d="M363.73,199.87a.93.93,0,0,1-.46.12l-.73.13c-.17,0-.25,0-.28-.19-.1-.56-.2-1.13-.29-1.7-.26-1.51-.52-3-.79-4.53,0-.21,0-.26.22-.3s.63-.1,1-.18h.24c0,.05,0,.1,0,.15.26,1.52.53,3,.8,4.58l.3,1.68Z" transform="translate(0 0)"/><path class="cls-46" d="M355.85,210.43h-5.33c-.28,0-.3,0-.3-.29v-6.53c0-.26,0-.28.29-.28h.67c.17,0,.22.07.22.23V209c0,.27,0,.3.3.3H360c.26,0,.29,0,.29-.3v-5.28c0-.34,0-.35.35-.35h.64c.14,0,.19.06.19.19v6.62c0,.3,0,.3-.3.3h-5.33Z" transform="translate(0 0)"/><path class="cls-46" d="M359.3,205.14c0,.28-.05.6-.07.91s-.12.21-.27.19l-1.67-.15-2.08-.19-2.56-.24a.21.21,0,0,1-.22-.25c0-.36.07-.72.1-1.08,0,0,0-.05,0-.07l0,0a.09.09,0,0,1,.07,0,.08.08,0,0,1,.07,0l2.23.2,2.14.2,1.94.18C359.31,204.79,359.31,204.8,359.3,205.14Z" transform="translate(0 0)"/><path class="cls-46" d="M360.91,201c-.12,0-.15-.09-.2-.15-.29-.44-.6-.88-.89-1.31-.89-1.3-1.77-2.6-2.66-3.89-.15-.23-.14-.24.08-.4l.79-.53c.18-.12.22-.12.34.06l1.95,2.86,1.59,2.33c.16.24.16.24-.07.4l-.8.55Z" transform="translate(0 0)"/><path class="cls-46" d="M359.75,203c0,.06,0,.12-.05.18-.07.29-.15.57-.23.85s-.09.27-.33.2l-3.39-.91-2.61-.7c-.31-.08-.32-.1-.24-.42s.17-.6.24-.9.12-.18.26-.14l3.86,1,2.24.6C359.61,202.85,359.74,202.86,359.75,203Z" transform="translate(0 0)"/><path class="cls-46" d="M360.6,201.29s0,.07-.06.11l-.53.91c-.11.18-.15.19-.35.07l-2.47-1.46-2.91-1.71c-.25-.15-.26-.17-.1-.42s.31-.54.47-.8.15-.2.33-.09l3.85,2.28,1.65,1S360.6,201.2,360.6,201.29Z" transform="translate(0 0)"/><path class="cls-46" d="M355.75,208.12h-3.1c-.27,0-.29,0-.29-.28v-.92c0-.25,0-.27.28-.27h6.28c.22,0,.24,0,.24.24v1c0,.22,0,.24-.25.24Z" transform="translate(0 0)"/><path class="cls-5" d="M527.22,198.72a17.34,17.34,0,1,1-5.08-12.27,17.35,17.35,0,0,1,5.08,12.27Z" transform="translate(0 0)"/><path class="cls-46" d="M521,196.67a11.14,11.14,0,0,0-1.84-4.27,11.59,11.59,0,0,0-6-4.43,8.56,8.56,0,0,0-1.73-.42,15.44,15.44,0,0,0-2.45-.08,10.83,10.83,0,0,0-1.89.21,11.88,11.88,0,0,0-4.83,2.37,11.29,11.29,0,0,0-2.24,2.44,11.53,11.53,0,0,0-1.57,3.35,8.3,8.3,0,0,0-.36,1.85c0,.61,0,1.23,0,1.84a10.31,10.31,0,0,0,.07,1.24,13.6,13.6,0,0,0,.43,1.89c0,.05,0,.06.09.06h.76a5.3,5.3,0,0,0,1.53-.28c.24-.09.49-.17.74-.24a.76.76,0,0,1,.47,0,.78.78,0,0,1,.4.26c.15.18.32.35.49.52l.23.2a1,1,0,0,0,.46.17,1,1,0,0,0,.48-.07.26.26,0,0,0,.1-.07.14.14,0,0,0,.05-.11.14.14,0,0,0,0-.11.25.25,0,0,0-.08-.1l-.13-.1-.25-.2a4.59,4.59,0,0,1-.78-1.12,1,1,0,0,1-.12-.53.93.93,0,0,1,.25-.59.91.91,0,0,1,.58-.28,1,1,0,0,1,.45.05.9.9,0,0,1,.4.23,3.57,3.57,0,0,1,.48.55c.11.13.2.27.31.4a.36.36,0,0,0,.12.08.33.33,0,0,0,.14,0l.14,0a.57.57,0,0,0,.13-.08c.09-.09.14-.11.25,0a3.79,3.79,0,0,1,.4.3c.31.28.6.58.92.87a2.14,2.14,0,0,0,.8.49,2.25,2.25,0,0,0,.93.11,11.74,11.74,0,0,0,1.19-.16,1.94,1.94,0,0,1,1.26.1.54.54,0,0,0,.21,0,.46.46,0,0,0,.2,0l.39-.13a.87.87,0,0,1,.48,0l.27.07a2,2,0,0,0,1.17,0,2,2,0,0,1,.4-.11c.1,0,.11,0,.09.1l-.09.42c-.1.42-.21.84-.28,1.26a2.29,2.29,0,0,1-.36.95c-.5.72-1,1.45-1.49,2.18l-.15.25v0a1.52,1.52,0,0,0,.72-.22,8,8,0,0,0,.7-.61,4,4,0,0,1,1.43-.94.46.46,0,0,0,.25-.15.5.5,0,0,0,.12-.28.38.38,0,0,1,.08-.17.31.31,0,0,1,.15-.1l.24-.09a5.83,5.83,0,0,1,2-.21c.29,0,.58,0,.88.07a.42.42,0,0,0,.29,0,.51.51,0,0,0,.2-.21c.17-.33.34-.65.5-1a11,11,0,0,0,.82-2.29,13.16,13.16,0,0,0,.06-5.05Zm-2.11,2.71a3.44,3.44,0,0,1-1.34,1.58,6.55,6.55,0,0,1-2.29.89,11.29,11.29,0,0,1-2.66.2,14.89,14.89,0,0,1-1.64-.12,15.79,15.79,0,0,1-1.69-.34,22,22,0,0,1-5.43-2.21,13.21,13.21,0,0,1-2.29-1.63,4.6,4.6,0,0,1-1-1.2,1.53,1.53,0,0,1-.2-.69,1.17,1.17,0,0,1,.09-.45,1.09,1.09,0,0,1,.28-.36,2.08,2.08,0,0,1,1.34-.56c.67,0,1.36-.06,2-.09h0c0,.14,0,.27-.05.4a1.38,1.38,0,0,0,.05.67,1.27,1.27,0,0,0,.38.56,4.45,4.45,0,0,0,1.19.78,17.21,17.21,0,0,0,3.46,1.24,4.59,4.59,0,0,0,1.17.17.73.73,0,0,0,.25,0c.1,0,.12-.11.07-.2a.33.33,0,0,0-.06-.1,2.3,2.3,0,0,1-.49-.82c-.05-.11-.09-.22-.13-.33a1,1,0,0,0-.25-.42,1,1,0,0,0-.42-.24c-.57-.16-1.14-.33-1.72-.47a9.54,9.54,0,0,1-1.74-.56c-.24-.12-.48-.25-.71-.39a1,1,0,0,1-.44-.49,1.08,1.08,0,0,1-.08-.66,11.21,11.21,0,0,1,.33-1.63,4.67,4.67,0,0,1,.34-1.08,1.35,1.35,0,0,1,1.29-.79c.53,0,1.07.06,1.6.09s.85.06,1.28,0a4.61,4.61,0,0,0,.9-.17,4.64,4.64,0,0,1,1.44-.14,2.34,2.34,0,0,1,1.53.61,3.7,3.7,0,0,1,.54.71,14.32,14.32,0,0,1,1.25,2.76,9.79,9.79,0,0,1,.43,1.61,1.58,1.58,0,0,1-.17,1l-.24.49c0,.06,0,.12-.07.19a.66.66,0,0,0,.35-.18,2.64,2.64,0,0,0,.58-.67,1.51,1.51,0,0,1,.22-.28l.08,0a.21.21,0,0,1,.08,0,3.07,3.07,0,0,1,.52.14,5,5,0,0,1,1.26.63,2,2,0,0,1,.61.62,2.13,2.13,0,0,1,.3.83,2.35,2.35,0,0,1-.18,1.17Z" transform="translate(0 0)"/><path class="cls-46" d="M510.71,204.38a1.53,1.53,0,0,1,.55.17.63.63,0,0,0,.38.09.47.47,0,0,0,.32-.16l.17-.14c.08-.07.14,0,.15.06a.48.48,0,0,1,0,.35,1.12,1.12,0,0,1-.52.51.33.33,0,0,1-.14,0,.36.36,0,0,1-.15,0,2.4,2.4,0,0,1-.4-.17,1.46,1.46,0,0,0-.57-.18.28.28,0,0,1-.16-.05.24.24,0,0,1-.09-.15.28.28,0,0,1,0-.18.33.33,0,0,1,.15-.11,1.65,1.65,0,0,1,.32-.06Z" transform="translate(0 0)"/><path class="cls-46" d="M509.24,192.82a4.86,4.86,0,0,1-.55.11c-.37.06-.75.11-1.12.18a.94.94,0,0,0-.58.3.29.29,0,0,1-.14.08l-.15,0-.28-.19a2.89,2.89,0,0,1-.63-.72,1.31,1.31,0,0,1-.09-.28.82.82,0,0,1,.13-.37.26.26,0,0,1,.21-.14.29.29,0,0,1,.13,0,.26.26,0,0,1,.11.07l.18.16a1,1,0,0,0,.37.21,1,1,0,0,0,.43,0l.91,0a2.92,2.92,0,0,1,.93.1.64.64,0,0,1,.22.14.13.13,0,0,1,.07.09.17.17,0,0,1,0,.12.24.24,0,0,1,0,.1l-.11,0Z" transform="translate(0 0)"/><path class="cls-46" d="M512.9,191.2a1.29,1.29,0,0,1-.58.3,2.69,2.69,0,0,1-1.13.06l-.17-.08.15-.11.4-.19a.34.34,0,0,0,.12-.12.14.14,0,0,0-.07-.24,3.9,3.9,0,0,0-.57-.13,2.1,2.1,0,0,0-.75,0h-.1a.06.06,0,0,0,0,0l.19-.1c.24-.06.49-.11.74-.15a2.83,2.83,0,0,1,1.26.08,1.18,1.18,0,0,1,.52.27.36.36,0,0,1,.07.1.43.43,0,0,1,0,.12.43.43,0,0,1,0,.11.86.86,0,0,1-.07.1Z" transform="translate(0 0)"/><path class="cls-73" d="M2.5,60.81A2.5,2.5,0,1,0,0,58.31,2.5,2.5,0,0,0,2.5,60.81Z" transform="translate(0 0)"/><path class="cls-73" d="M50.5,60.81a2.5,2.5,0,1,0-2.5-2.5A2.5,2.5,0,0,0,50.5,60.81Z" transform="translate(0 0)"/><path class="cls-73" d="M98.5,60.81a2.5,2.5,0,1,0-2.5-2.5A2.5,2.5,0,0,0,98.5,60.81Z" transform="translate(0 0)"/><path class="cls-73" d="M26.5,60.81a2.5,2.5,0,1,0-2.5-2.5A2.5,2.5,0,0,0,26.5,60.81Z" transform="translate(0 0)"/><path class="cls-73" d="M74.5,60.81a2.5,2.5,0,1,0-2.5-2.5A2.5,2.5,0,0,0,74.5,60.81Z" transform="translate(0 0)"/><path class="cls-73" d="M122.5,60.81a2.5,2.5,0,1,0-2.5-2.5A2.5,2.5,0,0,0,122.5,60.81Z" transform="translate(0 0)"/><path class="cls-73" d="M2.5,126.81a2.5,2.5,0,1,0-2.5-2.5A2.5,2.5,0,0,0,2.5,126.81Z" transform="translate(0 0)"/><path class="cls-73" d="M50.5,126.81a2.5,2.5,0,1,0-2.5-2.5A2.5,2.5,0,0,0,50.5,126.81Z" transform="translate(0 0)"/><path class="cls-73" d="M98.5,126.81a2.5,2.5,0,1,0-2.5-2.5A2.5,2.5,0,0,0,98.5,126.81Z" transform="translate(0 0)"/><path class="cls-73" d="M26.5,126.81a2.5,2.5,0,1,0-2.5-2.5A2.5,2.5,0,0,0,26.5,126.81Z" transform="translate(0 0)"/><path class="cls-73" d="M74.5,126.81a2.5,2.5,0,1,0-2.5-2.5A2.5,2.5,0,0,0,74.5,126.81Z" transform="translate(0 0)"/><path class="cls-73" d="M122.5,126.81a2.5,2.5,0,1,0-2.5-2.5A2.5,2.5,0,0,0,122.5,126.81Z" transform="translate(0 0)"/><path class="cls-73" d="M2.5,82.81A2.5,2.5,0,1,0,0,80.31,2.5,2.5,0,0,0,2.5,82.81Z" transform="translate(0 0)"/><path class="cls-73" d="M50.5,82.81a2.5,2.5,0,1,0-2.5-2.5A2.5,2.5,0,0,0,50.5,82.81Z" transform="translate(0 0)"/><path class="cls-73" d="M98.5,82.81a2.5,2.5,0,1,0-2.5-2.5A2.5,2.5,0,0,0,98.5,82.81Z" transform="translate(0 0)"/><path class="cls-73" d="M26.5,82.81a2.5,2.5,0,1,0-2.5-2.5A2.5,2.5,0,0,0,26.5,82.81Z" transform="translate(0 0)"/><path class="cls-73" d="M74.5,82.81a2.5,2.5,0,1,0-2.5-2.5A2.5,2.5,0,0,0,74.5,82.81Z" transform="translate(0 0)"/><path class="cls-73" d="M122.5,82.81a2.5,2.5,0,1,0-2.5-2.5A2.5,2.5,0,0,0,122.5,82.81Z" transform="translate(0 0)"/><path class="cls-73" d="M2.5,148.81a2.5,2.5,0,1,0-2.5-2.5A2.5,2.5,0,0,0,2.5,148.81Z" transform="translate(0 0)"/><path class="cls-73" d="M50.5,148.81a2.5,2.5,0,1,0-2.5-2.5A2.5,2.5,0,0,0,50.5,148.81Z" transform="translate(0 0)"/><path class="cls-73" d="M98.5,148.81a2.5,2.5,0,1,0-2.5-2.5A2.5,2.5,0,0,0,98.5,148.81Z" transform="translate(0 0)"/><path class="cls-73" d="M26.5,148.81a2.5,2.5,0,1,0-2.5-2.5A2.5,2.5,0,0,0,26.5,148.81Z" transform="translate(0 0)"/><path class="cls-73" d="M74.5,148.81a2.5,2.5,0,1,0-2.5-2.5A2.5,2.5,0,0,0,74.5,148.81Z" transform="translate(0 0)"/><path class="cls-73" d="M122.5,148.81a2.5,2.5,0,1,0-2.5-2.5A2.5,2.5,0,0,0,122.5,148.81Z" transform="translate(0 0)"/><path class="cls-73" d="M2.5,104.81a2.5,2.5,0,1,0-2.5-2.5A2.5,2.5,0,0,0,2.5,104.81Z" transform="translate(0 0)"/><path class="cls-73" d="M50.5,104.81a2.5,2.5,0,1,0-2.5-2.5A2.5,2.5,0,0,0,50.5,104.81Z" transform="translate(0 0)"/><path class="cls-73" d="M98.5,104.81a2.5,2.5,0,1,0-2.5-2.5A2.5,2.5,0,0,0,98.5,104.81Z" transform="translate(0 0)"/><path class="cls-73" d="M26.5,104.81a2.5,2.5,0,1,0-2.5-2.5A2.5,2.5,0,0,0,26.5,104.81Z" transform="translate(0 0)"/><path class="cls-73" d="M74.5,104.81a2.5,2.5,0,1,0-2.5-2.5A2.5,2.5,0,0,0,74.5,104.81Z" transform="translate(0 0)"/><path class="cls-73" d="M122.5,104.81a2.5,2.5,0,1,0-2.5-2.5A2.5,2.5,0,0,0,122.5,104.81Z" transform="translate(0 0)"/><path class="cls-73" d="M2.5,170.81a2.5,2.5,0,1,0-2.5-2.5A2.5,2.5,0,0,0,2.5,170.81Z" transform="translate(0 0)"/><path class="cls-73" d="M50.5,170.81a2.5,2.5,0,1,0-2.5-2.5A2.5,2.5,0,0,0,50.5,170.81Z" transform="translate(0 0)"/><path class="cls-73" d="M98.5,170.81a2.5,2.5,0,1,0-2.5-2.5A2.5,2.5,0,0,0,98.5,170.81Z" transform="translate(0 0)"/><path class="cls-73" d="M26.5,170.81a2.5,2.5,0,1,0-2.5-2.5A2.5,2.5,0,0,0,26.5,170.81Z" transform="translate(0 0)"/><path class="cls-73" d="M74.5,170.81a2.5,2.5,0,1,0-2.5-2.5A2.5,2.5,0,0,0,74.5,170.81Z" transform="translate(0 0)"/><path class="cls-73" d="M122.5,170.81a2.5,2.5,0,1,0-2.5-2.5A2.5,2.5,0,0,0,122.5,170.81Z" transform="translate(0 0)"/></svg>